<?xml version="1.0" encoding="UTF-8"?>
<svg xmlns="http://www.w3.org/2000/svg" xmlns:xlink="http://www.w3.org/1999/xlink" width="437.76001" height="345.600006" viewBox="0 0 437.76001 345.600006">
<path fill-rule="nonzero" fill="rgb(94.117647%, 94.117647%, 94.117647%)" fill-opacity="1" stroke-width="2.88" stroke-linecap="butt" stroke-linejoin="miter" stroke="rgb(94.117647%, 94.117647%, 94.117647%)" stroke-opacity="1" stroke-miterlimit="4" d="M 0.00030985 0.000762939 L 100.000114 0.000762939 L 49.999728 100.000759 Z M 0.00030985 0.000762939 " transform="matrix(4.032, 0, 0, 1.44, 17.280001, 141.119995)"/>
<path fill-rule="nonzero" fill="rgb(0%, 81.960784%, 37.254902%)" fill-opacity="1" stroke-width="2.88" stroke-linecap="butt" stroke-linejoin="miter" stroke="rgb(0%, 81.960784%, 37.254902%)" stroke-opacity="1" stroke-miterlimit="4" d="M 17.28125 146.878906 L 420.480469 146.878906 C 428.433594 146.878906 434.878906 140.433594 434.878906 132.480469 L 434.878906 17.28125 C 434.878906 9.328125 428.433594 2.878906 420.480469 2.878906 L 17.28125 2.878906 C 9.328125 2.878906 2.878906 9.328125 2.878906 17.28125 L 2.878906 132.480469 C 2.878906 140.433594 9.328125 146.878906 17.28125 146.878906 Z M 17.28125 146.878906 "/>
<path fill-rule="nonzero" fill="rgb(31.372549%, 34.509804%, 38.039216%)" fill-opacity="1" stroke-width="2.88" stroke-linecap="butt" stroke-linejoin="miter" stroke="rgb(100%, 100%, 100%)" stroke-opacity="1" stroke-miterlimit="4" d="M 132.480469 342.71875 L 305.28125 342.71875 C 317.210938 342.71875 326.878906 333.050781 326.878906 321.121094 L 326.878906 292.320312 C 326.878906 280.390625 317.210938 270.71875 305.28125 270.71875 L 132.480469 270.71875 C 120.550781 270.71875 110.878906 280.390625 110.878906 292.320312 L 110.878906 321.121094 C 110.878906 333.050781 120.550781 342.71875 132.480469 342.71875 Z M 132.480469 342.71875 "/>
<path fill-rule="nonzero" fill="rgb(100%, 100%, 100%)" fill-opacity="1" d="M 154.078125 306.71875 C 154.078125 314.671875 147.632812 321.121094 139.679688 321.121094 C 131.726562 321.121094 125.28125 314.671875 125.28125 306.71875 C 125.28125 298.765625 131.726562 292.320312 139.679688 292.320312 C 147.632812 292.320312 154.078125 298.765625 154.078125 306.71875 Z M 154.078125 306.71875 "/>
<path fill="none" stroke-width="4.32" stroke-linecap="butt" stroke-linejoin="miter" stroke="rgb(100%, 100%, 100%)" stroke-opacity="1" stroke-miterlimit="4" d="M 168.480469 306.71875 L 312.480469 306.71875 "/>
<path fill-rule="nonzero" fill="rgb(100%, 100%, 100%)" fill-opacity="1" d="M 206.226562 89.28125 L 200.332031 89.28125 L 197.988281 83.183594 L 187.257812 83.183594 L 185.042969 89.28125 L 179.292969 89.28125 L 189.75 62.4375 L 195.480469 62.4375 Z M 196.25 78.660156 L 192.550781 68.699219 L 188.925781 78.660156 Z M 209.121094 89.28125 L 209.121094 62.4375 L 214.542969 62.4375 L 214.542969 73.003906 L 225.160156 73.003906 L 225.160156 62.4375 L 230.582031 62.4375 L 230.582031 89.28125 L 225.160156 89.28125 L 225.160156 77.542969 L 214.542969 77.542969 L 214.542969 89.28125 Z M 243.03125 89.28125 L 233.433594 62.4375 L 239.3125 62.4375 L 246.105469 82.304688 L 252.679688 62.4375 L 258.429688 62.4375 L 248.816406 89.28125 Z M 179.292969 55.332031 "/>
</svg>
