<?xml version="1.0" encoding="UTF-8"?>
<svg xmlns="http://www.w3.org/2000/svg" xmlns:xlink="http://www.w3.org/1999/xlink" width="149.759995" height="149.759995" viewBox="0 0 149.759995 149.759995">
<path fill-rule="nonzero" fill="rgb(31.372549%, 34.509804%, 38.039216%)" fill-opacity="1" d="M 24.480469 146.878906 L 125.28125 146.878906 C 137.210938 146.878906 146.878906 137.210938 146.878906 125.28125 L 146.878906 24.480469 C 146.878906 12.550781 137.210938 2.878906 125.28125 2.878906 L 24.480469 2.878906 C 12.550781 2.878906 2.878906 12.550781 2.878906 24.480469 L 2.878906 125.28125 C 2.878906 137.210938 12.550781 146.878906 24.480469 146.878906 Z M 24.480469 146.878906 "/>
<path fill="none" stroke-width="14.4" stroke-linecap="butt" stroke-linejoin="miter" stroke="rgb(100%, 100%, 100%)" stroke-opacity="1" stroke-miterlimit="4" d="M 74.878906 17.28125 L 74.878906 132.480469 "/>
<path fill="none" stroke-width="14.4" stroke-linecap="butt" stroke-linejoin="miter" stroke="rgb(100%, 100%, 100%)" stroke-opacity="1" stroke-miterlimit="4" d="M 17.28125 74.878906 L 132.480469 74.878906 "/>
<path fill="none" stroke-width="14.4" stroke-linecap="butt" stroke-linejoin="miter" stroke="rgb(100%, 100%, 100%)" stroke-opacity="1" stroke-miterlimit="4" d="M 35.125 35.125 L 114.632812 114.632812 "/>
<path fill="none" stroke-width="14.4" stroke-linecap="butt" stroke-linejoin="miter" stroke="rgb(100%, 100%, 100%)" stroke-opacity="1" stroke-miterlimit="4" d="M 35.125 114.632812 L 114.632812 35.125 "/>
<path fill-rule="nonzero" fill="rgb(100%, 100%, 100%)" fill-opacity="1" stroke-width="2.88" stroke-linecap="butt" stroke-linejoin="miter" stroke="rgb(100%, 100%, 100%)" stroke-opacity="1" stroke-miterlimit="4" d="M 118.078125 74.878906 C 118.078125 98.738281 98.738281 118.078125 74.878906 118.078125 C 51.019531 118.078125 31.679688 98.738281 31.679688 74.878906 C 31.679688 51.019531 51.019531 31.679688 74.878906 31.679688 C 98.738281 31.679688 118.078125 51.019531 118.078125 74.878906 Z M 118.078125 74.878906 "/>
<path fill-rule="nonzero" fill="rgb(31.372549%, 34.509804%, 38.039216%)" fill-opacity="1" stroke-width="2.88" stroke-linecap="butt" stroke-linejoin="miter" stroke="rgb(100%, 100%, 100%)" stroke-opacity="1" stroke-miterlimit="4" d="M 103.679688 74.878906 C 103.679688 90.785156 90.785156 103.679688 74.878906 103.679688 C 58.972656 103.679688 46.078125 90.785156 46.078125 74.878906 C 46.078125 58.972656 58.972656 46.078125 74.878906 46.078125 C 90.785156 46.078125 103.679688 58.972656 103.679688 74.878906 Z M 103.679688 74.878906 "/>
<path fill-rule="nonzero" fill="rgb(100%, 100%, 100%)" fill-opacity="1" d="M 56.550781 76.125 L 56.550781 74.324219 C 56.917969 74.304688 57.191406 74.25 57.375 74.160156 C 57.5625 74.070312 57.722656 73.917969 57.855469 73.707031 C 57.992188 73.492188 58.085938 73.226562 58.132812 72.90625 C 58.171875 72.667969 58.195312 72.25 58.195312 71.652344 C 58.195312 70.683594 58.238281 70.007812 58.328125 69.625 C 58.417969 69.242188 58.582031 68.933594 58.816406 68.703125 C 59.050781 68.46875 59.394531 68.285156 59.84375 68.152344 C 60.148438 68.0625 60.628906 68.015625 61.285156 68.015625 L 61.683594 68.015625 L 61.683594 69.808594 C 61.128906 69.808594 60.769531 69.839844 60.613281 69.902344 C 60.457031 69.964844 60.339844 70.058594 60.265625 70.1875 C 60.191406 70.316406 60.152344 70.535156 60.152344 70.84375 C 60.152344 71.160156 60.128906 71.757812 60.085938 72.636719 C 60.058594 73.132812 59.996094 73.53125 59.890625 73.839844 C 59.785156 74.148438 59.652344 74.402344 59.488281 74.601562 C 59.324219 74.800781 59.078125 75.007812 58.742188 75.222656 C 59.035156 75.394531 59.277344 75.59375 59.464844 75.820312 C 59.652344 76.046875 59.796875 76.324219 59.898438 76.648438 C 59.996094 76.972656 60.0625 77.410156 60.089844 77.953125 C 60.125 78.785156 60.144531 79.3125 60.144531 79.542969 C 60.144531 79.875 60.183594 80.105469 60.265625 80.234375 C 60.34375 80.363281 60.464844 80.464844 60.628906 80.53125 C 60.789062 80.597656 61.140625 80.632812 61.683594 80.632812 L 61.683594 82.433594 L 61.285156 82.433594 C 60.609375 82.433594 60.089844 82.378906 59.730469 82.269531 C 59.371094 82.164062 59.066406 81.984375 58.820312 81.734375 C 58.574219 81.484375 58.40625 81.175781 58.320312 80.808594 C 58.234375 80.441406 58.195312 79.863281 58.195312 79.070312 C 58.195312 78.152344 58.152344 77.554688 58.074219 77.277344 C 57.964844 76.878906 57.796875 76.59375 57.574219 76.421875 C 57.351562 76.25 57.011719 76.148438 56.550781 76.125 Z M 73.109375 79.199219 L 70.695312 79.199219 L 69.734375 76.703125 L 65.339844 76.703125 L 64.433594 79.199219 L 62.078125 79.199219 L 66.359375 68.203125 L 68.707031 68.203125 Z M 69.023438 74.847656 L 67.507812 70.769531 L 66.023438 74.847656 Z M 74.289062 79.199219 L 74.289062 68.203125 L 77.851562 68.203125 C 79.203125 68.203125 80.082031 68.257812 80.492188 68.367188 C 81.121094 68.535156 81.648438 68.894531 82.074219 69.445312 C 82.5 69.996094 82.710938 70.710938 82.710938 71.585938 C 82.710938 72.261719 82.589844 72.828125 82.34375 73.289062 C 82.097656 73.75 81.789062 74.109375 81.410156 74.371094 C 81.03125 74.636719 80.648438 74.808594 80.257812 74.894531 C 79.730469 75 78.960938 75.050781 77.957031 75.050781 L 76.507812 75.050781 L 76.507812 79.199219 Z M 76.507812 70.0625 L 76.507812 73.183594 L 77.722656 73.183594 C 78.597656 73.183594 79.183594 73.125 79.480469 73.011719 C 79.773438 72.898438 80.003906 72.714844 80.171875 72.472656 C 80.339844 72.226562 80.425781 71.941406 80.425781 71.617188 C 80.425781 71.214844 80.308594 70.886719 80.070312 70.625 C 79.835938 70.367188 79.539062 70.203125 79.179688 70.140625 C 78.914062 70.089844 78.382812 70.0625 77.582031 70.0625 Z M 84.46875 79.199219 L 84.46875 68.203125 L 86.6875 68.203125 L 86.6875 79.199219 Z M 93.152344 76.125 C 92.785156 76.144531 92.511719 76.199219 92.328125 76.289062 C 92.140625 76.378906 91.984375 76.53125 91.851562 76.742188 C 91.71875 76.957031 91.625 77.222656 91.570312 77.542969 C 91.527344 77.78125 91.507812 78.195312 91.507812 78.785156 C 91.507812 79.757812 91.464844 80.433594 91.378906 80.820312 C 91.289062 81.203125 91.128906 81.511719 90.894531 81.746094 C 90.660156 81.976562 90.3125 82.160156 89.859375 82.296875 C 89.554688 82.386719 89.074219 82.433594 88.417969 82.433594 L 88.019531 82.433594 L 88.019531 80.632812 C 88.554688 80.632812 88.90625 80.597656 89.070312 80.53125 C 89.234375 80.464844 89.355469 80.367188 89.433594 80.238281 C 89.511719 80.109375 89.550781 79.894531 89.554688 79.589844 C 89.558594 79.285156 89.578125 78.703125 89.617188 77.839844 C 89.644531 77.320312 89.710938 76.90625 89.820312 76.59375 C 89.929688 76.28125 90.078125 76.015625 90.261719 75.796875 C 90.441406 75.578125 90.675781 75.390625 90.960938 75.222656 C 90.589844 74.984375 90.320312 74.75 90.152344 74.519531 C 89.917969 74.1875 89.757812 73.769531 89.671875 73.257812 C 89.617188 72.910156 89.574219 72.140625 89.550781 70.949219 C 89.546875 70.574219 89.511719 70.324219 89.449219 70.199219 C 89.386719 70.074219 89.273438 69.976562 89.113281 69.910156 C 88.949219 69.84375 88.585938 69.808594 88.019531 69.808594 L 88.019531 68.015625 L 88.417969 68.015625 C 89.09375 68.015625 89.609375 68.070312 89.972656 68.175781 C 90.332031 68.28125 90.632812 68.457031 90.878906 68.710938 C 91.125 68.964844 91.289062 69.273438 91.378906 69.640625 C 91.464844 70.007812 91.507812 70.585938 91.507812 71.375 C 91.507812 72.292969 91.546875 72.890625 91.621094 73.167969 C 91.730469 73.570312 91.898438 73.855469 92.125 74.027344 C 92.347656 74.199219 92.691406 74.300781 93.152344 74.324219 Z M 56.101562 65.292969 "/>
</svg>
