<?xml version="1.0" encoding="UTF-8"?>
<svg xmlns="http://www.w3.org/2000/svg" xmlns:xlink="http://www.w3.org/1999/xlink" width="149.759995" height="149.759995" viewBox="0 0 149.759995 149.759995">
<path fill-rule="nonzero" fill="rgb(0%, 81.960784%, 37.254902%)" fill-opacity="1" d="M 24.480469 146.878906 L 125.28125 146.878906 C 137.210938 146.878906 146.878906 137.210938 146.878906 125.28125 L 146.878906 24.480469 C 146.878906 12.550781 137.210938 2.878906 125.28125 2.878906 L 24.480469 2.878906 C 12.550781 2.878906 2.878906 12.550781 2.878906 24.480469 L 2.878906 125.28125 C 2.878906 137.210938 12.550781 146.878906 24.480469 146.878906 Z M 24.480469 146.878906 "/>
<path fill="none" stroke-width="2.88" stroke-linecap="butt" stroke-linejoin="miter" stroke="rgb(100%, 100%, 100%)" stroke-opacity="1" stroke-miterlimit="4" d="M 24.999239 60.000866 L 24.999239 79.998695 C 24.999239 85.467444 36.19173 89.899953 49.999238 89.899953 C 63.806747 89.899953 74.999237 85.467444 74.999237 79.998695 C 74.999237 79.998695 74.999237 79.998695 74.999237 79.995982 L 74.999237 59.99544 C 74.999237 65.46419 63.806747 69.896699 49.999238 69.896699 C 36.19173 69.896699 24.999239 65.46419 24.999239 59.99544 Z M 24.999239 60.000866 " transform="matrix(1.44, 0, 0, 1.44, 2.88, 2.88)"/>
<path fill="none" stroke-width="2.88" stroke-linecap="butt" stroke-linejoin="miter" stroke="rgb(100%, 100%, 100%)" stroke-opacity="1" stroke-miterlimit="4" d="M 24.999239 40.000324 L 24.999239 60.000866 C 24.999239 65.466903 36.19173 69.899411 49.999238 69.899411 C 63.806747 69.899411 74.999237 65.466903 74.999237 60.000866 L 74.999237 40.000324 C 74.999237 45.466361 63.806747 49.898869 49.999238 49.898869 C 36.19173 49.898869 24.999239 45.466361 24.999239 40.000324 Z M 24.999239 40.000324 " transform="matrix(1.44, 0, 0, 1.44, 2.88, 2.88)"/>
<path fill="none" stroke-width="2.88" stroke-linecap="butt" stroke-linejoin="miter" stroke="rgb(100%, 100%, 100%)" stroke-opacity="1" stroke-miterlimit="4" d="M 24.999239 19.999782 L 24.999239 40.000324 C 24.999239 45.466361 36.19173 49.898869 49.999238 49.898869 C 63.806747 49.898869 74.999237 45.466361 74.999237 40.000324 L 74.999237 19.999782 C 74.999237 25.468532 63.806747 29.90104 49.999238 29.90104 C 36.19173 29.90104 24.999239 25.468532 24.999239 19.999782 Z M 24.999239 19.999782 " transform="matrix(1.44, 0, 0, 1.44, 2.88, 2.88)"/>
<path fill="none" stroke-width="2.88" stroke-linecap="butt" stroke-linejoin="miter" stroke="rgb(100%, 100%, 100%)" stroke-opacity="1" stroke-miterlimit="4" d="M 49.999238 10.000868 C 36.19173 10.000868 24.999239 14.433376 24.999239 19.899413 C 24.999239 25.368163 36.19173 29.800671 49.999238 29.800671 C 63.806747 29.800671 74.999237 25.368163 74.999237 19.899413 C 74.999237 14.433376 63.806747 10.000868 49.999238 10.000868 Z M 49.999238 10.000868 " transform="matrix(1.44, 0, 0, 1.44, 2.88, 2.88)"/>
</svg>
