<?xml version="1.0" encoding="UTF-8"?>
<svg xmlns="http://www.w3.org/2000/svg" xmlns:xlink="http://www.w3.org/1999/xlink" width="437.76001" height="345.600006" viewBox="0 0 437.76001 345.600006">
<path fill-rule="nonzero" fill="rgb(94.117647%, 94.117647%, 94.117647%)" fill-opacity="1" stroke-width="2.88" stroke-linecap="butt" stroke-linejoin="miter" stroke="rgb(94.117647%, 94.117647%, 94.117647%)" stroke-opacity="1" stroke-miterlimit="4" d="M 0.00030985 0.000762939 L 100.000114 0.000762939 L 49.999728 100.000759 Z M 0.00030985 0.000762939 " transform="matrix(4.032, 0, 0, 1.44, 17.280001, 141.119995)"/>
<path fill-rule="nonzero" fill="rgb(0%, 81.960784%, 37.254902%)" fill-opacity="1" stroke-width="2.88" stroke-linecap="butt" stroke-linejoin="miter" stroke="rgb(0%, 81.960784%, 37.254902%)" stroke-opacity="1" stroke-miterlimit="4" d="M 17.28125 146.878906 L 420.480469 146.878906 C 428.433594 146.878906 434.878906 140.433594 434.878906 132.480469 L 434.878906 17.28125 C 434.878906 9.328125 428.433594 2.878906 420.480469 2.878906 L 17.28125 2.878906 C 9.328125 2.878906 2.878906 9.328125 2.878906 17.28125 L 2.878906 132.480469 C 2.878906 140.433594 9.328125 146.878906 17.28125 146.878906 Z M 17.28125 146.878906 "/>
<path fill-rule="nonzero" fill="rgb(31.372549%, 34.509804%, 38.039216%)" fill-opacity="1" stroke-width="2.88" stroke-linecap="butt" stroke-linejoin="miter" stroke="rgb(100%, 100%, 100%)" stroke-opacity="1" stroke-miterlimit="4" d="M 132.480469 342.71875 L 305.28125 342.71875 C 317.210938 342.71875 326.878906 333.050781 326.878906 321.121094 L 326.878906 292.320312 C 326.878906 280.390625 317.210938 270.71875 305.28125 270.71875 L 132.480469 270.71875 C 120.550781 270.71875 110.878906 280.390625 110.878906 292.320312 L 110.878906 321.121094 C 110.878906 333.050781 120.550781 342.71875 132.480469 342.71875 Z M 132.480469 342.71875 "/>
<path fill-rule="nonzero" fill="rgb(100%, 100%, 100%)" fill-opacity="1" d="M 154.078125 306.71875 C 154.078125 314.671875 147.632812 321.121094 139.679688 321.121094 C 131.726562 321.121094 125.28125 314.671875 125.28125 306.71875 C 125.28125 298.765625 131.726562 292.320312 139.679688 292.320312 C 147.632812 292.320312 154.078125 298.765625 154.078125 306.71875 Z M 154.078125 306.71875 "/>
<path fill="none" stroke-width="4.32" stroke-linecap="butt" stroke-linejoin="miter" stroke="rgb(100%, 100%, 100%)" stroke-opacity="1" stroke-miterlimit="4" d="M 168.480469 306.71875 L 312.480469 306.71875 "/>
<path fill-rule="nonzero" fill="rgb(100%, 100%, 100%)" fill-opacity="1" d="M 149.730469 89.28125 L 149.730469 62.4375 L 155.152344 62.4375 L 155.152344 73.003906 L 165.769531 73.003906 L 165.769531 62.4375 L 171.191406 62.4375 L 171.191406 89.28125 L 165.769531 89.28125 L 165.769531 77.542969 L 155.152344 77.542969 L 155.152344 89.28125 Z M 174.324219 69.835938 L 179.796875 69.835938 L 184.449219 83.640625 L 188.988281 69.835938 L 194.316406 69.835938 L 187.453125 88.546875 L 186.222656 91.9375 C 185.773438 93.070312 185.34375 93.9375 184.933594 94.535156 C 184.523438 95.132812 184.054688 95.621094 183.523438 95.992188 C 182.992188 96.363281 182.339844 96.65625 181.566406 96.863281 C 180.789062 97.070312 179.914062 97.171875 178.9375 97.171875 C 177.949219 97.171875 176.976562 97.070312 176.027344 96.863281 L 175.566406 92.832031 C 176.371094 92.992188 177.101562 93.070312 177.746094 93.070312 C 178.941406 93.070312 179.828125 92.71875 180.402344 92.019531 C 180.976562 91.316406 181.414062 90.421875 181.71875 89.335938 Z M 197.46875 69.835938 L 202.265625 69.835938 L 202.265625 72.691406 C 202.886719 71.714844 203.730469 70.921875 204.792969 70.3125 C 205.855469 69.703125 207.03125 69.394531 208.324219 69.394531 C 210.582031 69.394531 212.5 70.28125 214.074219 72.050781 C 215.648438 73.820312 216.4375 76.285156 216.4375 79.449219 C 216.4375 82.695312 215.644531 85.21875 214.054688 87.019531 C 212.46875 88.820312 210.546875 89.71875 208.289062 89.71875 C 207.214844 89.71875 206.242188 89.507812 205.367188 89.078125 C 204.496094 88.652344 203.578125 87.921875 202.613281 86.882812 L 202.613281 96.679688 L 197.46875 96.679688 Z M 202.558594 79.230469 C 202.558594 81.414062 202.992188 83.027344 203.859375 84.070312 C 204.726562 85.113281 205.78125 85.636719 207.023438 85.636719 C 208.222656 85.636719 209.214844 85.160156 210.007812 84.199219 C 210.800781 83.242188 211.199219 81.671875 211.199219 79.484375 C 211.199219 77.445312 210.789062 75.933594 209.972656 74.945312 C 209.15625 73.957031 208.140625 73.460938 206.933594 73.460938 C 205.675781 73.460938 204.632812 73.945312 203.800781 74.917969 C 202.972656 75.886719 202.558594 77.324219 202.558594 79.230469 Z M 231.78125 83.09375 L 236.90625 83.953125 C 236.25 85.832031 235.207031 87.265625 233.785156 88.246094 C 232.363281 89.230469 230.585938 89.71875 228.449219 89.71875 C 225.066406 89.71875 222.5625 88.617188 220.941406 86.40625 C 219.660156 84.636719 219.019531 82.402344 219.019531 79.703125 C 219.019531 76.480469 219.859375 73.957031 221.546875 72.132812 C 223.230469 70.308594 225.359375 69.394531 227.9375 69.394531 C 230.828125 69.394531 233.109375 70.351562 234.785156 72.261719 C 236.457031 74.171875 237.253906 77.097656 237.183594 81.042969 L 224.292969 81.042969 C 224.328125 82.566406 224.742188 83.753906 225.535156 84.601562 C 226.328125 85.449219 227.320312 85.875 228.503906 85.875 C 229.308594 85.875 229.984375 85.65625 230.535156 85.214844 C 231.085938 84.777344 231.5 84.070312 231.78125 83.09375 Z M 232.074219 77.890625 C 232.039062 76.402344 231.652344 75.269531 230.921875 74.496094 C 230.1875 73.71875 229.296875 73.332031 228.246094 73.332031 C 227.125 73.332031 226.195312 73.742188 225.464844 74.558594 C 224.730469 75.378906 224.371094 76.488281 224.382812 77.890625 Z M 246.300781 89.28125 L 241.15625 89.28125 L 241.15625 69.835938 L 245.933594 69.835938 L 245.933594 72.601562 C 246.753906 71.292969 247.488281 70.433594 248.140625 70.019531 C 248.792969 69.605469 249.535156 69.394531 250.367188 69.394531 C 251.539062 69.394531 252.667969 69.71875 253.753906 70.367188 L 252.160156 74.851562 C 251.292969 74.289062 250.488281 74.011719 249.742188 74.011719 C 249.023438 74.011719 248.414062 74.207031 247.910156 74.605469 C 247.410156 75.003906 247.019531 75.71875 246.730469 76.757812 C 246.445312 77.792969 246.300781 79.96875 246.300781 83.273438 Z M 255.382812 82.121094 L 255.382812 76.976562 L 265.492188 76.976562 L 265.492188 82.121094 Z M 275.34375 89.28125 L 265.746094 62.4375 L 271.625 62.4375 L 278.417969 82.304688 L 284.992188 62.4375 L 290.742188 62.4375 L 281.128906 89.28125 Z M 146.984375 55.332031 "/>
</svg>
