<?xml version="1.0" encoding="UTF-8"?>
<svg width="275" height="150" version="1.1" viewBox="0 0 275 150" xmlns="http://www.w3.org/2000/svg">
 <path d="m11 79.4c23 16.1 74.5 46.6 78.9 46.5l98.1-1.15c4.3-0.0503 53.8-29.5 76.1-45.4h-253z" fill="#adacaf" stroke-width="2.22"/>
 <rect width="275" height="79.4" rx="10.1" ry="9.37" fill="#505861"/>
 <rect x="80.4" y="123" width="114" height="27.1" rx="5.23" ry="6.46" fill="#505861"/>
 <path d="m91.1 126c-0.793 0-1.43 1.35-1.43 3.02v14.2c0 1.67 0.638 3.02 1.43 3.02 0.793 0 1.43-1.35 1.43-3.02v-14.2c0-1.67-0.638-3.02-1.43-3.02zm5.79 0c-0.793 0-1.43 1.35-1.43 3.02v14.2c0 1.67 0.638 3.02 1.43 3.02 0.793 0 1.43-1.35 1.43-3.02v-14.2c0-1.67-0.638-3.02-1.43-3.02zm5.79 0c-0.793 0-1.43 1.35-1.43 3.02v14.2c0 1.67 0.64 3.02 1.43 3.02 0.793 0 1.43-1.35 1.43-3.02v-14.2c0-1.67-0.638-3.02-1.43-3.02zm5.79 0c-0.793 0-1.43 1.35-1.43 3.02v14.2c0 1.67 0.638 3.02 1.43 3.02 0.793 0 1.43-1.35 1.43-3.02v-14.2c0-1.67-0.638-3.02-1.43-3.02zm5.79 0c-0.793 0-1.43 1.35-1.43 3.02v14.2c0 1.67 0.638 3.02 1.43 3.02 0.793 0 1.43-1.35 1.43-3.02v-14.2c0-1.67-0.638-3.02-1.43-3.02zm5.79 0c-0.793 0-1.43 1.35-1.43 3.02v14.2c0 1.67 0.64 3.02 1.43 3.02 0.793 0 1.43-1.35 1.43-3.02v-14.2c0-1.67-0.638-3.02-1.43-3.02zm5.79 0c-0.793 0-1.43 1.35-1.43 3.02v14.2c0 1.67 0.638 3.02 1.43 3.02 0.793 0 1.43-1.35 1.43-3.02v-14.2c0-1.67-0.64-3.02-1.43-3.02zm5.79 0c-0.793 0-1.43 1.35-1.43 3.02v14.2c0 1.67 0.638 3.02 1.43 3.02 0.793 0 1.43-1.35 1.43-3.02v-14.2c0-1.67-0.638-3.02-1.43-3.02zm5.79 0c-0.793 0-1.43 1.35-1.43 3.02v14.2c0 1.67 0.64 3.02 1.43 3.02 0.793 0 1.43-1.35 1.43-3.02v-14.2c0-1.67-0.638-3.02-1.43-3.02zm5.79 0c-0.793 0-1.43 1.35-1.43 3.02v14.2c0 1.67 0.638 3.02 1.43 3.02 0.793 0 1.43-1.35 1.43-3.02v-14.2c0-1.67-0.64-3.02-1.43-3.02zm5.79 0c-0.793 0-1.43 1.35-1.43 3.02v14.2c0 1.67 0.638 3.02 1.43 3.02 0.793 0 1.43-1.35 1.43-3.02v-14.2c0-1.67-0.638-3.02-1.43-3.02zm5.79 0c-0.793 0-1.43 1.35-1.43 3.02v14.2c0 1.67 0.638 3.02 1.43 3.02 0.793 0 1.43-1.35 1.43-3.02v-14.2c0-1.67-0.638-3.02-1.43-3.02zm5.79 0c-0.793 0-1.43 1.35-1.43 3.02v14.2c0 1.67 0.638 3.02 1.43 3.02 0.793 0 1.43-1.35 1.43-3.02v-14.2c0-1.67-0.64-3.02-1.43-3.02zm5.79 0c-0.793 0-1.43 1.35-1.43 3.02v14.2c0 1.67 0.638 3.02 1.43 3.02 0.793 0 1.43-1.35 1.43-3.02v-14.2c0-1.67-0.638-3.02-1.43-3.02zm5.79 0c-0.793 0-1.43 1.35-1.43 3.02v14.2c0 1.67 0.638 3.02 1.43 3.02 0.793 0 1.43-1.35 1.43-3.02v-14.2c-1e-5 -1.67-0.638-3.02-1.43-3.02zm5.79 0c-0.793 0-1.43 1.35-1.43 3.02v14.2c0 1.67 0.638 3.02 1.43 3.02 0.793 0 1.43-1.35 1.43-3.02v-14.2c0-1.67-0.64-3.02-1.43-3.02zm5.79 0c-0.793 0-1.43 1.35-1.43 3.02v14.2c0 1.67 0.638 3.02 1.43 3.02s1.43-1.35 1.43-3.02v-14.2c0-1.67-0.638-3.02-1.43-3.02z" fill="#fff" stroke-width="2.2"/>
</svg>
