<?xml version="1.0" encoding="UTF-8"?>
<svg xmlns="http://www.w3.org/2000/svg" xmlns:xlink="http://www.w3.org/1999/xlink" width="149.759995" height="149.759995" viewBox="0 0 149.759995 149.759995">
<path fill-rule="nonzero" fill="rgb(31.372549%, 34.509804%, 38.039216%)" fill-opacity="1" d="M 24.480469 146.878906 L 125.28125 146.878906 C 137.210938 146.878906 146.878906 137.210938 146.878906 125.28125 L 146.878906 24.480469 C 146.878906 12.550781 137.210938 2.878906 125.28125 2.878906 L 24.480469 2.878906 C 12.550781 2.878906 2.878906 12.550781 2.878906 24.480469 L 2.878906 125.28125 C 2.878906 137.210938 12.550781 146.878906 24.480469 146.878906 Z M 24.480469 146.878906 "/>
<path fill="none" stroke-width="1.152" stroke-linecap="butt" stroke-linejoin="miter" stroke="rgb(100%, 100%, 100%)" stroke-opacity="1" stroke-miterlimit="4" d="M 46.000758 27.001192 C 45.935653 27.210068 45.610133 27.169378 45.409395 27.269747 C 45.241209 27.356553 45.111001 27.549152 44.921114 27.549152 C 44.739364 27.554578 44.459959 27.486761 44.44097 27.310437 C 44.408418 27.069009 44.750215 26.919812 44.969942 26.841145 C 45.249347 26.729925 45.620983 26.670246 45.889538 26.822156 C 45.95193 26.854708 46.019746 26.930663 46.000758 27.001192 Z M 47.999998 27.001192 C 48.065102 27.210068 48.390623 27.169378 48.588648 27.269747 C 48.759547 27.356553 48.889755 27.549152 49.079642 27.549152 C 49.258679 27.554578 49.540797 27.486761 49.559785 27.310437 C 49.592337 27.069009 49.25054 26.919812 49.030814 26.841145 C 48.748696 26.729925 48.379772 26.670246 48.111218 26.822156 C 48.048826 26.854708 47.981009 26.930663 47.999998 27.001192 Z M 51.800454 32.600151 C 50.300345 33.41124 48.49913 34.398653 46.49989 34.398653 C 44.601018 34.398653 43.10091 33.508896 41.999564 32.600151 C 41.448892 32.168835 41.009438 31.740233 40.700194 31.401149 C 40.119681 30.939994 40.190211 30.299803 40.428926 30.299803 C 40.830402 30.351344 40.890081 30.880316 41.139647 31.110893 C 41.478731 31.430988 41.910046 31.840602 42.439017 32.209526 C 43.439994 33.028753 44.839733 33.810003 46.54058 33.810003 C 48.238713 33.810003 50.240666 32.809026 51.439668 32.109157 C 52.128687 31.721244 53.040145 31.010524 53.740015 30.508679 C 54.290688 30.109916 54.268986 29.618922 54.730141 29.670463 C 55.191295 29.722004 54.849499 30.210285 54.209308 30.769096 C 53.569117 31.330619 52.60883 32.071179 51.811304 32.469942 Z M 81.79991 73.599498 C 81.79991 73.599498 81.797197 73.596785 81.797197 73.596785 C 81.197696 72.915904 80.90744 71.697914 80.598196 70.298174 C 80.288951 68.996091 79.947154 67.495982 78.897349 66.598088 C 78.894637 66.595375 78.891924 66.592662 78.891924 66.58995 C 78.672197 66.400062 78.449758 66.240015 78.230032 66.109806 C 78.002167 65.982311 77.779728 65.871091 77.551863 65.781573 C 79.051972 61.281247 78.48231 56.780922 76.941512 52.779729 C 75.039927 47.780271 71.741317 43.480684 69.240232 40.781574 C 66.440752 37.181856 63.641273 33.880532 63.741642 28.780706 C 63.825735 21.179795 64.579858 6.780924 50.739798 6.780924 C 50.199976 6.780924 49.641165 6.802626 49.041665 6.848741 C 34.04058 8.050455 38.041774 23.849066 38.041774 28.851236 C 37.770506 32.749348 36.940428 35.749564 34.341687 39.851127 C 31.241101 43.551213 26.841145 49.548935 24.741535 55.850475 C 23.76226 58.850692 23.241427 61.850909 23.740559 64.650388 C 23.602213 64.769746 23.480142 64.899954 23.349934 65.030162 C 22.430338 66.009437 21.752169 67.23014 20.951931 68.030379 C 20.24121 68.7411 19.251084 68.998804 18.149739 69.430119 C 17.051106 69.828882 15.852104 70.409394 15.051866 71.830835 C 15.051866 71.830835 15.051866 71.830835 15.049153 71.830835 C 15.049153 71.833547 15.049153 71.83626 15.04644 71.838973 C 14.696505 72.487302 14.585286 73.138343 14.585286 73.938582 C 14.585286 74.586911 14.682942 75.237953 14.775173 75.937822 C 14.975911 77.237193 15.184787 78.536564 14.916232 79.336802 C 14.037326 81.737518 13.926106 83.337996 14.547308 84.536997 C 15.165798 85.738712 16.44618 86.237844 17.845919 86.53895 C 20.745767 87.138451 24.646592 86.989254 27.646809 88.63856 L 27.907225 88.136715 L 27.646809 88.63856 C 30.94542 90.336693 34.246743 90.938907 36.945853 90.336693 C 38.844725 89.89724 40.445202 88.738929 41.245441 87.038082 C 43.34505 87.027232 45.645397 86.148325 49.245115 85.936737 C 51.7462 85.738712 54.846786 86.818356 58.346135 86.617618 C 58.438366 87.008243 58.576712 87.377167 58.755748 87.718963 C 58.758461 87.721676 58.761174 87.724389 58.761174 87.727101 C 60.160913 90.526581 62.661998 91.728295 65.461477 91.527557 C 68.1633 91.30783 71.063148 89.729055 73.461152 86.926863 L 73.032549 86.56879 L 73.461152 86.926863 C 75.66113 84.227753 79.461585 83.12912 81.862301 81.629011 C 83.061303 80.888452 84.06228 79.928165 84.162648 78.628795 C 84.238603 77.229055 83.441077 75.728947 81.661564 73.726994 " transform="matrix(1.44, 0, 0, 1.44, 2.88, 2.88)"/>
<path fill-rule="nonzero" fill="rgb(100%, 100%, 100%)" fill-opacity="1" stroke-width="0.72" stroke-linecap="butt" stroke-linejoin="miter" stroke="rgb(31.372549%, 34.509804%, 38.039216%)" stroke-opacity="1" stroke-miterlimit="4" d="M 46.000758 24.999239 C 45.900389 25.029079 45.80002 25.058918 45.710502 25.09147 C 45.17068 25.281357 44.739364 25.482095 44.310762 25.761501 C 44.348739 25.471245 44.356877 25.180989 44.324325 24.852755 C 44.321613 24.833766 44.321613 24.820203 44.321613 24.801214 C 44.27821 24.372612 44.183266 24.000976 44.031357 23.602213 C 43.871309 23.222438 43.681422 22.951171 43.442707 22.742295 C 43.22298 22.552408 43.022242 22.471028 42.791665 22.471028 C 42.769963 22.471028 42.745549 22.47374 42.721135 22.47374 C 42.471569 22.498154 42.251843 22.62565 42.051105 22.864365 C 41.85308 23.105793 41.722872 23.415038 41.622503 23.813801 C 41.527559 24.215277 41.503145 24.605902 41.541122 25.015515 C 41.541122 25.031791 41.546548 25.048068 41.546548 25.064344 C 41.589951 25.503797 41.676756 25.864582 41.836804 26.266058 C 41.996852 26.645832 42.186739 26.914387 42.425454 27.125975 C 42.466144 27.16124 42.506834 27.19108 42.544812 27.218206 C 42.295246 27.408093 42.12706 27.549152 41.926322 27.69835 C 41.796114 27.796006 41.636066 27.909938 41.45703 28.040146 C 41.055554 27.66851 40.746309 27.199218 40.475042 26.540038 C 40.154946 25.810329 39.98676 25.039929 39.93522 24.239691 L 39.93522 24.231553 C 39.889104 23.371635 39.973197 22.631075 40.206487 21.830837 C 40.445202 21.071288 40.75716 20.531466 41.204751 20.032334 C 41.665905 19.57118 42.12706 19.351453 42.704859 19.321614 C 42.748262 19.318901 42.791665 19.318901 42.835068 19.318901 C 43.336912 19.318901 43.795354 19.489799 44.234807 19.858723 C 44.74479 20.260199 45.127277 20.778319 45.436522 21.4592 C 45.756617 22.18891 45.924803 22.959309 45.976344 23.759548 L 45.976344 23.764973 C 45.998045 24.125759 45.995332 24.464843 45.968206 24.765949 Z M 57.000649 24.009114 C 57.008787 25.01009 56.840601 25.810329 56.460827 26.710936 C 56.2411 27.199218 55.999672 27.619682 55.701278 28.010307 C 55.600909 27.961479 55.48969 27.915363 55.389321 27.869248 C 55.009546 27.7092 54.681313 27.578992 54.391057 27.459634 C 54.08995 27.351127 53.859373 27.269747 53.620658 27.19108 C 53.788843 26.979491 54.138778 26.729925 54.260848 26.42068 C 54.450736 25.948675 54.551105 25.490233 54.570093 24.920572 C 54.570093 24.89887 54.578231 24.879882 54.578231 24.852755 C 54.589082 24.334634 54.518552 23.884331 54.366643 23.453015 C 54.206595 22.972872 54.005857 22.622937 53.707463 22.354383 C 53.406356 22.064127 53.1161 21.933918 52.766165 21.923068 C 52.749889 21.923068 52.733613 21.923068 52.717337 21.923068 C 52.389104 21.923068 52.098848 22.042425 51.797741 22.283853 C 51.488496 22.54427 51.247068 22.883354 51.057181 23.382486 C 50.867294 23.851778 50.766925 24.312933 50.747936 24.882594 C 50.745224 24.904296 50.745224 24.923285 50.745224 24.944986 C 50.737086 25.246093 50.758787 25.525498 50.804902 25.794053 C 50.124021 25.454969 49.304794 25.205403 48.705293 25.064344 C 48.670028 24.803927 48.65104 24.535372 48.642902 24.255967 L 48.642902 24.180012 C 48.632051 23.189886 48.794811 22.378797 49.174586 21.478189 C 49.55436 20.610134 50.034503 19.978081 50.674694 19.478949 C 51.344724 18.968966 51.974065 18.738389 52.774303 18.730251 L 52.812281 18.730251 C 53.571829 18.730251 54.21202 18.949977 54.91189 19.438259 C 55.590058 19.929253 56.110892 20.539604 56.509655 21.440212 C 56.90028 22.278428 57.082029 23.138345 57.101018 24.038953 C 57.101018 24.06608 57.101018 24.085068 57.109156 24.112195 Z M 76.000214 66.009437 C 75.791338 66.001299 75.568899 66.004012 75.370874 66.006725 C 75.351885 66.009437 75.332896 66.009437 75.313908 66.009437 C 75.842879 64.308591 74.673717 63.109589 71.513452 61.70985 C 68.312497 60.31011 65.713756 60.407767 65.211911 63.310327 C 65.184785 63.459524 65.163083 63.619572 65.146807 63.768769 C 64.905379 63.852862 64.655813 63.958656 64.417098 64.088865 C 62.91699 64.918943 62.016382 66.389212 61.614906 68.288083 C 61.156465 70.189667 61.026256 72.389645 60.896048 74.888018 L 60.896048 74.89073 C 60.81738 76.190101 60.296547 77.890947 59.794702 79.692163 C 54.496851 83.489905 46.795571 85.090383 40.795137 80.891164 C 40.374673 80.221134 39.886392 79.591794 39.395398 78.891924 C 39.075302 78.471459 38.747069 78.061846 38.426973 77.69021 C 39.067164 77.692922 39.625975 77.589841 40.024738 77.391815 C 40.575411 77.142249 40.955185 76.740774 41.126083 76.190101 C 41.505858 75.191837 41.123371 73.691729 39.927082 72.091251 C 38.725367 70.390405 36.625758 68.591903 33.625541 66.690318 C 31.425563 65.290579 30.126192 63.589733 29.526691 61.79123 C 28.935329 59.889646 29.024847 57.890406 29.475151 55.988821 C 30.343206 52.191079 32.573024 48.490992 33.972763 46.190645 C 34.35525 45.911239 34.113822 46.708765 32.573024 49.589625 C 31.173284 52.288735 28.574543 58.389538 32.133571 63.589733 C 32.231227 60.190753 33.045029 56.688691 34.433918 53.590818 C 36.433158 49.090493 40.635089 41.589951 40.933484 34.591253 C 41.104382 34.710611 41.693032 35.109374 41.93446 35.261283 C 41.93446 35.261283 41.93446 35.261283 41.937173 35.261283 C 42.704859 35.711587 43.236543 36.359916 44.036782 36.96213 C 44.78548 37.56163 45.734916 38.060762 47.134655 38.161131 C 47.275714 38.169269 47.405923 38.171982 47.536131 38.171982 C 49.036239 38.171982 50.134872 37.702689 51.03548 37.173718 C 52.036456 36.582355 52.836695 35.972004 53.636934 35.67361 C 53.636934 35.670897 53.636934 35.670897 53.639646 35.670897 C 55.240124 35.160914 56.539494 34.271157 57.339733 33.172525 C 58.639103 38.171982 61.538951 45.17068 63.538192 49.171873 C 64.539168 51.070744 66.538409 55.071938 67.439016 60.171764 C 67.989689 60.155488 68.638018 60.234156 69.240232 60.402341 C 71.537866 54.502276 67.338647 48.401474 65.339407 46.402233 C 64.558157 45.650823 64.528318 45.300888 64.908092 45.300888 C 67.007701 47.102103 69.709524 50.902559 70.707788 55.101777 C 71.168942 57.000649 71.258461 59.002602 70.772892 61.001842 C 71.01432 61.102211 71.253035 61.210718 71.502601 61.321938 C 75.202688 63.123153 76.502059 64.623261 75.902558 66.722871 Z M 57.000649 30.009547 C 56.740232 29.499565 56.211261 29.019422 55.299802 28.609808 L 55.29709 28.609808 L 55.294377 28.607095 C 53.395506 27.806856 52.595267 27.747178 51.59429 27.106987 C 49.896157 26.008354 48.493705 25.606878 47.294703 25.606878 C 46.684351 25.609591 46.095701 25.718098 45.593857 25.888996 C 44.194117 26.377278 43.195853 27.389105 42.596352 27.988606 L 42.59364 27.988606 C 42.59364 27.991318 42.59364 27.991318 42.59364 27.991318 C 42.474282 28.099825 42.322372 28.200194 41.964299 28.471461 C 41.592663 28.740016 41.04199 29.141492 40.263453 29.770832 C 39.563583 30.299803 39.333006 30.969834 39.571721 31.770072 C 39.813149 32.570311 40.572698 33.470919 41.972437 34.271157 L 41.97515 34.27387 L 41.977863 34.27387 C 42.856769 34.794703 43.477971 35.472872 44.177841 36.075085 C 44.516925 36.354491 44.888562 36.593206 45.279186 36.783093 C 45.71864 36.97298 46.228622 37.095051 46.876951 37.133028 C 48.37706 37.219834 49.478405 36.774955 50.476669 36.213432 C 51.447806 35.654621 52.277884 35.01443 53.178492 34.713323 L 53.181204 34.713323 C 55.082789 34.102972 56.482528 32.912108 56.98166 31.713106 C 57.201387 31.132594 57.193249 30.611761 56.932832 30.112629 Z M 41.0013 85.009003 L 40.998588 85.017141 L 40.998588 85.022566 C 40.79785 87.62402 39.297741 89.124128 37.000107 89.62326 C 34.69976 90.144094 31.599174 89.625973 28.498588 88.022783 C 28.498588 88.022783 28.495876 88.022783 28.495876 88.022783 C 25.096896 86.221568 20.995333 86.422306 18.496961 85.822805 C 17.194878 85.551537 16.296983 85.141924 15.895507 84.423065 C 15.504882 83.660804 15.496744 82.320743 16.326822 80.023109 L 16.332248 80.001407 C 16.741861 78.702037 16.443467 77.302297 16.240017 76.002927 C 16.039279 74.700843 15.93891 73.501842 16.389214 72.701603 L 16.394639 72.693465 C 16.9643 71.594832 17.794379 71.193356 18.795355 70.794593 C 19.793619 70.422957 21.09299 70.132701 21.993597 69.194116 L 22.004448 69.183265 C 22.905055 68.23383 23.604925 67.083656 24.405164 66.183049 C 25.075194 65.475041 25.704534 64.984047 26.705511 64.984047 C 26.716362 64.984047 26.727212 64.984047 26.740776 64.984047 C 26.919812 64.984047 27.098849 65.000323 27.299587 65.030162 C 28.598957 65.2309 29.800671 66.131508 30.899304 67.731985 L 34.100259 73.63205 L 34.100259 73.634763 L 34.102972 73.637475 C 34.962889 75.435978 36.802082 77.435218 38.30219 79.437171 C 39.802299 81.436412 41.004013 83.435652 40.903644 85.036129 Z M 82.998912 78.810544 C 82.952796 79.640622 82.350583 80.310652 81.200409 80.910153 C 79.000431 82.209524 74.999237 83.411238 72.500865 86.509111 C 70.300887 89.110565 67.599064 90.510304 65.298717 90.711042 C 62.900714 90.900929 60.898761 89.918942 59.699759 87.510088 L 59.694333 87.499237 C 58.953774 86.099497 59.265731 83.899519 59.884221 81.498803 C 60.516274 79.198456 61.384329 76.700084 61.484698 74.7985 L 61.484698 74.793074 C 61.614906 72.291989 61.755965 70.092011 62.173717 68.393877 C 62.594181 66.693031 63.275063 65.594398 64.474064 64.891816 C 64.53103 64.861977 64.585284 64.83485 64.634112 64.807723 C 64.76432 67.007701 65.835826 69.207679 67.734698 69.706811 C 69.834307 70.257484 72.834524 68.50781 74.133895 67.007701 C 74.386173 66.996851 74.635739 66.986 74.874454 66.977862 C 75.9758 66.953448 76.873695 67.015839 77.874671 67.84863 L 77.880097 67.854055 C 78.609806 68.475258 78.981442 69.655271 79.279836 70.954641 C 79.580943 72.254012 79.819658 73.653751 80.779945 74.755097 L 80.782657 74.755097 L 80.782657 74.757809 C 82.483504 76.656681 83.083004 77.956052 83.083004 78.856659 Z M 82.998912 78.810544 " transform="matrix(1.44, 0, 0, 1.44, 2.88, 2.88)"/>
</svg>
