<?xml version="1.0" encoding="UTF-8"?>
<svg xmlns="http://www.w3.org/2000/svg" xmlns:xlink="http://www.w3.org/1999/xlink" width="149.759995" height="149.759995" viewBox="0 0 149.759995 149.759995">
<path fill-rule="nonzero" fill="rgb(31.372549%, 34.509804%, 38.039216%)" fill-opacity="1" d="M 24.480469 146.878906 L 125.28125 146.878906 C 137.210938 146.878906 146.878906 137.210938 146.878906 125.28125 L 146.878906 24.480469 C 146.878906 12.550781 137.210938 2.878906 125.28125 2.878906 L 24.480469 2.878906 C 12.550781 2.878906 2.878906 12.550781 2.878906 24.480469 L 2.878906 125.28125 C 2.878906 137.210938 12.550781 146.878906 24.480469 146.878906 Z M 24.480469 146.878906 "/>
<path fill-rule="nonzero" fill="rgb(18.039216%, 21.176471%, 24.705882%)" fill-opacity="1" d="M 69.121094 41.761719 C 69.027344 42.0625 68.558594 42.003906 68.269531 42.148438 C 68.027344 42.273438 67.839844 42.550781 67.566406 42.550781 C 67.304688 42.558594 66.902344 42.460938 66.875 42.207031 C 66.828125 41.859375 67.320312 41.644531 67.636719 41.53125 C 68.039062 41.371094 68.574219 41.285156 68.960938 41.503906 C 69.050781 41.550781 69.148438 41.660156 69.121094 41.761719 Z M 72 41.761719 C 72.09375 42.0625 72.5625 42.003906 72.847656 42.148438 C 73.09375 42.273438 73.28125 42.550781 73.554688 42.550781 C 73.8125 42.558594 74.21875 42.460938 74.246094 42.207031 C 74.292969 41.859375 73.800781 41.644531 73.484375 41.53125 C 73.078125 41.371094 72.546875 41.285156 72.160156 41.503906 C 72.070312 41.550781 71.972656 41.660156 72 41.761719 Z M 77.472656 49.824219 C 75.3125 50.992188 72.71875 52.414062 69.839844 52.414062 C 67.105469 52.414062 64.945312 51.132812 63.359375 49.824219 C 62.566406 49.203125 61.933594 48.585938 61.488281 48.097656 C 60.652344 47.433594 60.753906 46.511719 61.097656 46.511719 C 61.675781 46.585938 61.761719 47.347656 62.121094 47.679688 C 62.609375 48.140625 63.230469 48.730469 63.992188 49.261719 C 65.433594 50.441406 67.449219 51.566406 69.898438 51.566406 C 72.34375 51.566406 75.226562 50.125 76.953125 49.117188 C 77.945312 48.558594 79.257812 47.535156 80.265625 46.8125 C 81.058594 46.238281 81.027344 45.53125 81.691406 45.605469 C 82.355469 45.679688 81.863281 46.382812 80.941406 47.1875 C 80.019531 47.996094 78.636719 49.0625 77.488281 49.636719 Z M 120.671875 108.863281 C 120.671875 108.863281 120.667969 108.859375 120.667969 108.859375 C 119.804688 107.878906 119.386719 106.125 118.941406 104.109375 C 118.496094 102.234375 118.003906 100.074219 116.492188 98.78125 C 116.488281 98.777344 116.484375 98.773438 116.484375 98.769531 C 116.167969 98.496094 115.847656 98.265625 115.53125 98.078125 C 115.203125 97.894531 114.882812 97.734375 114.554688 97.605469 C 116.714844 91.125 115.894531 84.644531 113.675781 78.882812 C 110.9375 71.683594 106.1875 65.492188 102.585938 61.605469 C 98.554688 56.421875 94.523438 51.667969 94.667969 44.324219 C 94.789062 33.378906 95.875 12.644531 75.945312 12.644531 C 75.167969 12.644531 74.363281 12.675781 73.5 12.742188 C 51.898438 14.472656 57.660156 37.222656 57.660156 44.425781 C 57.269531 50.039062 56.074219 54.359375 52.332031 60.265625 C 47.867188 65.59375 41.53125 74.230469 38.507812 83.304688 C 37.097656 87.625 36.347656 91.945312 37.066406 95.976562 C 36.867188 96.148438 36.691406 96.335938 36.503906 96.523438 C 35.179688 97.933594 34.203125 99.691406 33.050781 100.84375 C 32.027344 101.867188 30.601562 102.238281 29.015625 102.859375 C 27.433594 103.433594 25.707031 104.269531 24.554688 106.316406 C 24.554688 106.316406 24.554688 106.316406 24.550781 106.316406 C 24.550781 106.320312 24.550781 106.324219 24.546875 106.328125 C 24.042969 107.261719 23.882812 108.199219 23.882812 109.351562 C 23.882812 110.285156 24.023438 111.222656 24.15625 112.230469 C 24.445312 114.101562 24.746094 115.972656 24.359375 117.125 C 23.09375 120.582031 22.933594 122.886719 23.828125 124.613281 C 24.71875 126.34375 26.5625 127.0625 28.578125 127.496094 C 32.753906 128.359375 38.371094 128.144531 42.691406 130.519531 L 43.066406 129.796875 L 42.691406 130.519531 C 47.441406 132.964844 52.195312 133.832031 56.082031 132.964844 C 58.816406 132.332031 61.121094 130.664062 62.273438 128.214844 C 65.296875 128.199219 68.609375 126.933594 73.792969 126.628906 C 77.394531 126.34375 81.859375 127.898438 86.898438 127.609375 C 87.03125 128.171875 87.230469 128.703125 87.488281 129.195312 C 87.492188 129.199219 87.496094 129.203125 87.496094 129.207031 C 89.511719 133.238281 93.113281 134.96875 97.144531 134.679688 C 101.035156 134.363281 105.210938 132.089844 108.664062 128.054688 L 108.046875 127.539062 L 108.664062 128.054688 C 111.832031 124.167969 117.304688 122.585938 120.761719 120.425781 C 122.488281 119.359375 123.929688 117.976562 124.074219 116.105469 C 124.183594 114.089844 123.035156 111.929688 120.472656 109.046875 "/>
<path fill-rule="nonzero" fill="rgb(100%, 100%, 100%)" fill-opacity="1" d="M 69.121094 38.878906 C 68.976562 38.921875 68.832031 38.964844 68.703125 39.011719 C 67.925781 39.285156 67.304688 39.574219 66.6875 39.976562 C 66.742188 39.558594 66.753906 39.140625 66.707031 38.667969 C 66.703125 38.640625 66.703125 38.621094 66.703125 38.59375 C 66.640625 37.976562 66.503906 37.441406 66.285156 36.867188 C 66.054688 36.320312 65.78125 35.929688 65.4375 35.628906 C 65.121094 35.355469 64.832031 35.238281 64.5 35.238281 C 64.46875 35.238281 64.433594 35.242188 64.398438 35.242188 C 64.039062 35.277344 63.722656 35.460938 63.433594 35.804688 C 63.148438 36.152344 62.960938 36.597656 62.816406 37.171875 C 62.679688 37.75 62.644531 38.3125 62.699219 38.902344 C 62.699219 38.925781 62.707031 38.949219 62.707031 38.972656 C 62.769531 39.605469 62.894531 40.125 63.125 40.703125 C 63.355469 41.25 63.628906 41.636719 63.972656 41.941406 C 64.03125 41.992188 64.089844 42.035156 64.144531 42.074219 C 63.785156 42.347656 63.542969 42.550781 63.253906 42.765625 C 63.066406 42.90625 62.835938 43.070312 62.578125 43.257812 C 62 42.722656 61.554688 42.046875 61.164062 41.097656 C 60.703125 40.046875 60.460938 38.9375 60.386719 37.785156 L 60.386719 37.773438 C 60.320312 36.535156 60.441406 35.46875 60.777344 34.316406 C 61.121094 33.222656 61.570312 32.445312 62.214844 31.726562 C 62.878906 31.0625 63.542969 30.746094 64.375 30.703125 C 64.4375 30.699219 64.5 30.699219 64.5625 30.699219 C 65.285156 30.699219 65.945312 30.945312 66.578125 31.476562 C 67.3125 32.054688 67.863281 32.800781 68.308594 33.78125 C 68.769531 34.832031 69.011719 35.941406 69.085938 37.09375 L 69.085938 37.101562 C 69.117188 37.621094 69.113281 38.109375 69.074219 38.542969 Z M 84.960938 37.453125 C 84.972656 38.894531 84.730469 40.046875 84.183594 41.34375 C 83.867188 42.046875 83.519531 42.652344 83.089844 43.214844 C 82.945312 43.144531 82.785156 43.078125 82.640625 43.011719 C 82.09375 42.78125 81.621094 42.59375 81.203125 42.421875 C 80.769531 42.265625 80.4375 42.148438 80.09375 42.035156 C 80.335938 41.730469 80.839844 41.371094 81.015625 40.925781 C 81.289062 40.246094 81.433594 39.585938 81.460938 38.765625 C 81.460938 38.734375 81.472656 38.707031 81.472656 38.667969 C 81.488281 37.921875 81.386719 37.273438 81.167969 36.652344 C 80.9375 35.960938 80.648438 35.457031 80.21875 35.070312 C 79.785156 34.652344 79.367188 34.464844 78.863281 34.449219 C 78.839844 34.449219 78.816406 34.449219 78.792969 34.449219 C 78.320312 34.449219 77.902344 34.621094 77.46875 34.96875 C 77.023438 35.34375 76.675781 35.832031 76.402344 36.550781 C 76.128906 37.226562 75.984375 37.890625 75.957031 38.710938 C 75.953125 38.742188 75.953125 38.769531 75.953125 38.800781 C 75.941406 39.234375 75.972656 39.636719 76.039062 40.023438 C 75.058594 39.535156 73.878906 39.175781 73.015625 38.972656 C 72.964844 38.597656 72.9375 38.210938 72.925781 37.808594 L 72.925781 37.699219 C 72.910156 36.273438 73.144531 35.105469 73.691406 33.808594 C 74.238281 32.558594 74.929688 31.648438 75.851562 30.929688 C 76.816406 30.195312 77.722656 29.863281 78.875 29.851562 L 78.929688 29.851562 C 80.023438 29.851562 80.945312 30.167969 81.953125 30.871094 C 82.929688 31.578125 83.679688 32.457031 84.253906 33.753906 C 84.816406 34.960938 85.078125 36.199219 85.105469 37.496094 C 85.105469 37.535156 85.105469 37.5625 85.117188 37.601562 Z M 112.320312 97.933594 C 112.019531 97.921875 111.699219 97.925781 111.414062 97.929688 C 111.386719 97.933594 111.359375 97.933594 111.332031 97.933594 C 112.09375 95.484375 110.410156 93.757812 105.859375 91.742188 C 101.25 89.726562 97.507812 89.867188 96.785156 94.046875 C 96.746094 94.261719 96.714844 94.492188 96.691406 94.707031 C 96.34375 94.828125 95.984375 94.980469 95.640625 95.167969 C 93.480469 96.363281 92.183594 98.480469 91.605469 101.214844 C 90.945312 103.953125 90.757812 107.121094 90.570312 110.71875 L 90.570312 110.722656 C 90.457031 112.59375 89.707031 115.042969 88.984375 117.636719 C 81.355469 123.105469 70.265625 125.410156 61.625 119.363281 C 61.019531 118.398438 60.316406 117.492188 59.609375 116.484375 C 59.148438 115.878906 58.675781 115.289062 58.214844 114.753906 C 59.136719 114.757812 59.941406 114.609375 60.515625 114.324219 C 61.308594 113.964844 61.855469 113.386719 62.101562 112.59375 C 62.648438 111.15625 62.097656 108.996094 60.375 106.691406 C 58.644531 104.242188 55.621094 101.652344 51.300781 98.914062 C 48.132812 96.898438 46.261719 94.449219 45.398438 91.859375 C 44.546875 89.121094 44.675781 86.242188 45.324219 83.503906 C 46.574219 78.035156 49.785156 72.707031 51.800781 69.394531 C 52.351562 68.992188 52.003906 70.140625 49.785156 74.289062 C 47.769531 78.175781 44.027344 86.960938 49.152344 94.449219 C 49.292969 89.554688 50.464844 84.511719 52.464844 80.050781 C 55.34375 73.570312 61.394531 62.769531 61.824219 52.691406 C 62.070312 52.863281 62.917969 53.4375 63.265625 53.65625 C 63.265625 53.65625 63.265625 53.65625 63.269531 53.65625 C 64.375 54.304688 65.140625 55.238281 66.292969 56.105469 C 67.371094 56.96875 68.738281 57.6875 70.753906 57.832031 C 70.957031 57.84375 71.144531 57.847656 71.332031 57.847656 C 73.492188 57.847656 75.074219 57.171875 76.371094 56.410156 C 77.8125 55.558594 78.964844 54.679688 80.117188 54.25 C 80.117188 54.246094 80.117188 54.246094 80.121094 54.246094 C 82.425781 53.511719 84.296875 52.230469 85.449219 50.648438 C 87.320312 57.847656 91.496094 67.925781 94.375 73.6875 C 95.816406 76.421875 98.695312 82.183594 99.992188 89.527344 C 100.785156 89.503906 101.71875 89.617188 102.585938 89.859375 C 105.894531 81.363281 99.847656 72.578125 96.96875 69.699219 C 95.84375 68.617188 95.800781 68.113281 96.347656 68.113281 C 99.371094 70.707031 103.261719 76.179688 104.699219 82.226562 C 105.363281 84.960938 105.492188 87.84375 104.792969 90.722656 C 105.140625 90.867188 105.484375 91.023438 105.84375 91.183594 C 111.171875 93.777344 113.042969 95.9375 112.179688 98.960938 Z M 84.960938 46.09375 C 84.585938 45.359375 83.824219 44.667969 82.511719 44.078125 L 82.507812 44.078125 L 82.503906 44.074219 C 79.769531 42.921875 78.617188 42.835938 77.175781 41.914062 C 74.730469 40.332031 72.710938 39.753906 70.984375 39.753906 C 70.105469 39.757812 69.257812 39.914062 68.535156 40.160156 C 66.519531 40.863281 65.082031 42.320312 64.21875 43.183594 L 64.214844 43.183594 C 64.214844 43.1875 64.214844 43.1875 64.214844 43.1875 C 64.042969 43.34375 63.824219 43.488281 63.308594 43.878906 C 62.773438 44.265625 61.980469 44.84375 60.859375 45.75 C 59.851562 46.511719 59.519531 47.476562 59.863281 48.628906 C 60.210938 49.78125 61.304688 51.078125 63.320312 52.230469 L 63.324219 52.234375 L 63.328125 52.234375 C 64.59375 52.984375 65.488281 53.960938 66.496094 54.828125 C 66.984375 55.230469 67.519531 55.574219 68.082031 55.847656 C 68.714844 56.121094 69.449219 56.296875 70.382812 56.351562 C 72.542969 56.476562 74.128906 55.835938 75.566406 55.027344 C 76.964844 54.222656 78.160156 53.300781 79.457031 52.867188 L 79.460938 52.867188 C 82.199219 51.988281 84.214844 50.273438 84.933594 48.546875 C 85.25 47.710938 85.238281 46.960938 84.863281 46.242188 Z M 61.921875 125.292969 L 61.917969 125.304688 L 61.917969 125.3125 C 61.628906 129.058594 59.46875 131.21875 56.160156 131.9375 C 52.847656 132.6875 48.382812 131.941406 43.917969 129.632812 C 43.917969 129.632812 43.914062 129.632812 43.914062 129.632812 C 39.019531 127.039062 33.113281 127.328125 29.515625 126.464844 C 27.640625 126.074219 26.347656 125.484375 25.769531 124.449219 C 25.207031 123.351562 25.195312 121.421875 26.390625 118.113281 L 26.398438 118.082031 C 26.988281 116.210938 26.558594 114.195312 26.265625 112.324219 C 25.976562 110.449219 25.832031 108.722656 26.480469 107.570312 L 26.488281 107.558594 C 27.308594 105.976562 28.503906 105.398438 29.945312 104.824219 C 31.382812 104.289062 33.253906 103.871094 34.550781 102.519531 L 34.566406 102.503906 C 35.863281 101.136719 36.871094 99.480469 38.023438 98.183594 C 38.988281 97.164062 39.894531 96.457031 41.335938 96.457031 C 41.351562 96.457031 41.367188 96.457031 41.386719 96.457031 C 41.644531 96.457031 41.902344 96.480469 42.191406 96.523438 C 44.0625 96.8125 45.792969 98.109375 47.375 100.414062 L 51.984375 108.910156 L 51.984375 108.914062 L 51.988281 108.917969 C 53.226562 111.507812 55.875 114.386719 58.035156 117.269531 C 60.195312 120.148438 61.925781 123.027344 61.78125 125.332031 Z M 122.398438 116.367188 C 122.332031 117.5625 121.464844 118.527344 119.808594 119.390625 C 116.640625 121.261719 110.878906 122.992188 107.28125 127.453125 C 104.113281 131.199219 100.222656 133.214844 96.910156 133.503906 C 93.457031 133.777344 90.574219 132.363281 88.847656 128.894531 L 88.839844 128.878906 C 87.773438 126.863281 88.222656 123.695312 89.113281 120.238281 C 90.023438 116.925781 91.273438 113.328125 91.417969 110.589844 L 91.417969 110.582031 C 91.605469 106.980469 91.808594 103.8125 92.410156 101.367188 C 93.015625 98.917969 93.996094 97.335938 95.722656 96.324219 C 95.804688 96.28125 95.882812 96.242188 95.953125 96.203125 C 96.140625 99.371094 97.683594 102.539062 100.417969 103.257812 C 103.441406 104.050781 107.761719 101.53125 109.632812 99.371094 C 109.996094 99.355469 110.355469 99.339844 110.699219 99.328125 C 112.285156 99.292969 113.578125 99.382812 115.019531 100.582031 L 115.027344 100.589844 C 116.078125 101.484375 116.613281 103.183594 117.042969 105.054688 C 117.476562 106.925781 117.820312 108.941406 119.203125 110.527344 L 119.207031 110.527344 L 119.207031 110.53125 C 121.65625 113.265625 122.519531 115.136719 122.519531 116.433594 Z M 122.398438 116.367188 "/>
</svg>
