<?xml version="1.0" encoding="UTF-8"?>
<svg xmlns="http://www.w3.org/2000/svg" xmlns:xlink="http://www.w3.org/1999/xlink" width="77.760002" height="77.760002" viewBox="0 0 77.760002 77.760002">
<path fill-rule="nonzero" fill="rgb(31.372549%, 34.509804%, 38.039216%)" fill-opacity="1" d="M 38.878906 74.878906 C 58.761719 74.878906 74.878906 58.761719 74.878906 38.878906 C 74.878906 18.996094 58.761719 2.878906 38.878906 2.878906 C 18.996094 2.878906 2.878906 18.996094 2.878906 38.878906 C 2.878906 58.761719 18.996094 74.878906 38.878906 74.878906 Z M 38.878906 74.878906 "/>
<path fill-rule="nonzero" fill="rgb(100%, 100%, 100%)" fill-opacity="1" d="M 38.878906 19.296875 C 32.835938 19.296875 27.9375 24.453125 27.9375 30.816406 C 27.9375 30.949219 27.9375 31.085938 27.941406 31.21875 L 25.0625 31.21875 C 23.152344 31.21875 21.605469 32.765625 21.605469 34.675781 L 21.605469 53.683594 C 21.605469 55.59375 23.152344 57.140625 25.0625 57.140625 L 52.710938 57.140625 C 54.617188 57.140625 56.164062 55.59375 56.164062 53.683594 L 56.164062 34.675781 C 56.164062 32.765625 54.617188 31.21875 52.710938 31.21875 L 49.828125 31.21875 C 49.832031 31.085938 49.835938 30.949219 49.835938 30.816406 C 49.835938 24.453125 44.9375 19.296875 38.890625 19.296875 Z M 38.878906 22.175781 C 43.332031 22.175781 46.945312 26.042969 46.945312 30.816406 C 46.941406 30.949219 46.9375 31.085938 46.933594 31.21875 L 31.378906 31.21875 C 31.375 31.085938 31.371094 30.949219 31.367188 30.816406 C 31.367188 26.042969 34.980469 22.175781 39.433594 22.175781 Z M 38.878906 34.847656 C 40.789062 34.847656 42.335938 36.394531 42.335938 38.304688 C 42.1875 39.628906 41.289062 40.75 40.03125 41.183594 L 40.03125 52.128906 L 38.304688 52.128906 L 38.304688 41.183594 C 37.046875 40.75 36.148438 39.628906 36 38.304688 C 36 36.394531 37.546875 34.847656 39.457031 34.847656 Z M 38.878906 34.847656 "/>
</svg>
