<?xml version="1.0" encoding="UTF-8"?>
<svg xmlns="http://www.w3.org/2000/svg" xmlns:xlink="http://www.w3.org/1999/xlink" width="149.759995" height="149.759995" viewBox="0 0 149.759995 149.759995">
<path fill-rule="nonzero" fill="rgb(31.372549%, 34.509804%, 38.039216%)" fill-opacity="1" d="M 24.480469 146.878906 L 125.28125 146.878906 C 137.210938 146.878906 146.878906 137.210938 146.878906 125.28125 L 146.878906 24.480469 C 146.878906 12.550781 137.210938 2.878906 125.28125 2.878906 L 24.480469 2.878906 C 12.550781 2.878906 2.878906 12.550781 2.878906 24.480469 L 2.878906 125.28125 C 2.878906 137.210938 12.550781 146.878906 24.480469 146.878906 Z M 24.480469 146.878906 "/>
<path fill="none" stroke-width="2.88" stroke-linecap="butt" stroke-linejoin="miter" stroke="rgb(100%, 100%, 100%)" stroke-opacity="1" stroke-miterlimit="4" d="M 31.679688 118.078125 L 118.078125 118.078125 C 126.03125 118.078125 132.480469 111.632812 132.480469 103.679688 L 132.480469 46.078125 C 132.480469 38.128906 126.03125 31.679688 118.078125 31.679688 L 31.679688 31.679688 C 23.726562 31.679688 17.28125 38.128906 17.28125 46.078125 L 17.28125 103.679688 C 17.28125 111.632812 23.726562 118.078125 31.679688 118.078125 Z M 31.679688 118.078125 "/>
<path fill="none" stroke-width="2.88" stroke-linecap="butt" stroke-linejoin="miter" stroke="rgb(100%, 100%, 100%)" stroke-opacity="1" stroke-miterlimit="4" d="M 27.359375 103.679688 L 36 103.679688 C 37.589844 103.679688 38.878906 102.390625 38.878906 100.800781 L 38.878906 48.960938 C 38.878906 47.371094 37.589844 46.078125 36 46.078125 L 27.359375 46.078125 C 25.769531 46.078125 24.480469 47.371094 24.480469 48.960938 L 24.480469 100.800781 C 24.480469 102.390625 25.769531 103.679688 27.359375 103.679688 Z M 27.359375 103.679688 "/>
<path fill-rule="nonzero" fill="rgb(100%, 100%, 100%)" fill-opacity="1" stroke-width="2.88" stroke-linecap="butt" stroke-linejoin="miter" stroke="rgb(100%, 100%, 100%)" stroke-opacity="1" stroke-miterlimit="4" d="M 33.839844 60.480469 C 33.839844 61.671875 32.871094 62.640625 31.679688 62.640625 C 30.488281 62.640625 29.519531 61.671875 29.519531 60.480469 C 29.519531 59.285156 30.488281 58.320312 31.679688 58.320312 C 32.871094 58.320312 33.839844 59.285156 33.839844 60.480469 Z M 33.839844 60.480469 "/>
<path fill="none" stroke-width="2.88" stroke-linecap="butt" stroke-linejoin="miter" stroke="rgb(100%, 100%, 100%)" stroke-opacity="1" stroke-miterlimit="4" d="M 48.960938 103.679688 L 57.601562 103.679688 C 59.191406 103.679688 60.480469 102.390625 60.480469 100.800781 L 60.480469 48.960938 C 60.480469 47.371094 59.191406 46.078125 57.601562 46.078125 L 48.960938 46.078125 C 47.371094 46.078125 46.078125 47.371094 46.078125 48.960938 L 46.078125 100.800781 C 46.078125 102.390625 47.371094 103.679688 48.960938 103.679688 Z M 48.960938 103.679688 "/>
<path fill-rule="nonzero" fill="rgb(100%, 100%, 100%)" fill-opacity="1" stroke-width="2.88" stroke-linecap="butt" stroke-linejoin="miter" stroke="rgb(100%, 100%, 100%)" stroke-opacity="1" stroke-miterlimit="4" d="M 55.441406 60.480469 C 55.441406 61.671875 54.472656 62.640625 53.28125 62.640625 C 52.085938 62.640625 51.121094 61.671875 51.121094 60.480469 C 51.121094 59.285156 52.085938 58.320312 53.28125 58.320312 C 54.472656 58.320312 55.441406 59.285156 55.441406 60.480469 Z M 55.441406 60.480469 "/>
<path fill="none" stroke-width="2.88" stroke-linecap="butt" stroke-linejoin="miter" stroke="rgb(100%, 100%, 100%)" stroke-opacity="1" stroke-miterlimit="4" d="M 70.558594 103.679688 L 79.199219 103.679688 C 80.789062 103.679688 82.078125 102.390625 82.078125 100.800781 L 82.078125 48.960938 C 82.078125 47.371094 80.789062 46.078125 79.199219 46.078125 L 70.558594 46.078125 C 68.96875 46.078125 67.679688 47.371094 67.679688 48.960938 L 67.679688 100.800781 C 67.679688 102.390625 68.96875 103.679688 70.558594 103.679688 Z M 70.558594 103.679688 "/>
<path fill-rule="nonzero" fill="rgb(100%, 100%, 100%)" fill-opacity="1" stroke-width="2.88" stroke-linecap="butt" stroke-linejoin="miter" stroke="rgb(100%, 100%, 100%)" stroke-opacity="1" stroke-miterlimit="4" d="M 77.039062 60.480469 C 77.039062 61.671875 76.074219 62.640625 74.878906 62.640625 C 73.6875 62.640625 72.71875 61.671875 72.71875 60.480469 C 72.71875 59.285156 73.6875 58.320312 74.878906 58.320312 C 76.074219 58.320312 77.039062 59.285156 77.039062 60.480469 Z M 77.039062 60.480469 "/>
<path fill="none" stroke-width="2.88" stroke-linecap="butt" stroke-linejoin="miter" stroke="rgb(100%, 100%, 100%)" stroke-opacity="1" stroke-miterlimit="4" d="M 92.160156 103.679688 L 100.800781 103.679688 C 102.390625 103.679688 103.679688 102.390625 103.679688 100.800781 L 103.679688 48.960938 C 103.679688 47.371094 102.390625 46.078125 100.800781 46.078125 L 92.160156 46.078125 C 90.570312 46.078125 89.28125 47.371094 89.28125 48.960938 L 89.28125 100.800781 C 89.28125 102.390625 90.570312 103.679688 92.160156 103.679688 Z M 92.160156 103.679688 "/>
<path fill-rule="nonzero" fill="rgb(100%, 100%, 100%)" fill-opacity="1" stroke-width="2.88" stroke-linecap="butt" stroke-linejoin="miter" stroke="rgb(100%, 100%, 100%)" stroke-opacity="1" stroke-miterlimit="4" d="M 98.640625 60.480469 C 98.640625 61.671875 97.671875 62.640625 96.480469 62.640625 C 95.285156 62.640625 94.320312 61.671875 94.320312 60.480469 C 94.320312 59.285156 95.285156 58.320312 96.480469 58.320312 C 97.671875 58.320312 98.640625 59.285156 98.640625 60.480469 Z M 98.640625 60.480469 "/>
<path fill="none" stroke-width="2.88" stroke-linecap="butt" stroke-linejoin="miter" stroke="rgb(100%, 100%, 100%)" stroke-opacity="1" stroke-miterlimit="4" d="M 113.761719 103.679688 L 122.398438 103.679688 C 123.992188 103.679688 125.28125 102.390625 125.28125 100.800781 L 125.28125 48.960938 C 125.28125 47.371094 123.992188 46.078125 122.398438 46.078125 L 113.761719 46.078125 C 112.167969 46.078125 110.878906 47.371094 110.878906 48.960938 L 110.878906 100.800781 C 110.878906 102.390625 112.167969 103.679688 113.761719 103.679688 Z M 113.761719 103.679688 "/>
<path fill-rule="nonzero" fill="rgb(100%, 100%, 100%)" fill-opacity="1" stroke-width="2.88" stroke-linecap="butt" stroke-linejoin="miter" stroke="rgb(100%, 100%, 100%)" stroke-opacity="1" stroke-miterlimit="4" d="M 120.238281 60.480469 C 120.238281 61.671875 119.273438 62.640625 118.078125 62.640625 C 116.886719 62.640625 115.921875 61.671875 115.921875 60.480469 C 115.921875 59.285156 116.886719 58.320312 118.078125 58.320312 C 119.273438 58.320312 120.238281 59.285156 120.238281 60.480469 Z M 120.238281 60.480469 "/>
</svg>
