<?xml version="1.0" encoding="UTF-8"?>
<svg xmlns="http://www.w3.org/2000/svg" xmlns:xlink="http://www.w3.org/1999/xlink" width="149.759995" height="149.759995" viewBox="0 0 149.759995 149.759995">
<path fill-rule="nonzero" fill="rgb(0%, 81.960784%, 37.254902%)" fill-opacity="1" d="M 24.480469 146.878906 L 125.28125 146.878906 C 137.210938 146.878906 146.878906 137.210938 146.878906 125.28125 L 146.878906 24.480469 C 146.878906 12.550781 137.210938 2.878906 125.28125 2.878906 L 24.480469 2.878906 C 12.550781 2.878906 2.878906 12.550781 2.878906 24.480469 L 2.878906 125.28125 C 2.878906 137.210938 12.550781 146.878906 24.480469 146.878906 Z M 24.480469 146.878906 "/>
<path fill="none" stroke-width="2.88" stroke-linecap="butt" stroke-linejoin="miter" stroke="rgb(100%, 100%, 100%)" stroke-opacity="1" stroke-miterlimit="4" d="M 27.001192 19.999782 L 72.999997 19.999782 C 74.779511 19.975368 76.480357 20.743055 77.638669 22.093966 C 78.799693 23.44759 79.296112 25.24338 79.000431 27.001192 L 71.000757 74.000974 C 70.493487 78.023868 67.056529 81.032223 63.001082 80.999671 L 37.000107 80.999671 C 32.94466 81.032223 29.507703 78.023868 29.000433 74.000974 L 21.000759 27.001192 C 20.702365 25.24338 21.201496 23.44759 22.359808 22.093966 C 23.51812 20.743055 25.218966 19.975368 27.001192 19.999782 Z M 27.001192 19.999782 " transform="matrix(1.44, 0, 0, 1.44, 2.88, 2.88)"/>
<path fill="none" stroke-width="2.88" stroke-linecap="butt" stroke-linejoin="miter" stroke="rgb(100%, 100%, 100%)" stroke-opacity="1" stroke-miterlimit="4" d="M 53.667969 89.28125 L 59.429688 89.28125 C 61.816406 89.28125 63.75 87.347656 63.75 84.960938 L 63.75 64.800781 C 63.75 62.414062 61.816406 60.480469 59.429688 60.480469 L 53.667969 60.480469 C 51.28125 60.480469 49.347656 62.414062 49.347656 64.800781 L 49.347656 84.960938 C 49.347656 87.347656 51.28125 89.28125 53.667969 89.28125 Z M 53.667969 89.28125 "/>
<path fill="none" stroke-width="2.88" stroke-linecap="butt" stroke-linejoin="miter" stroke="rgb(100%, 100%, 100%)" stroke-opacity="1" stroke-miterlimit="4" d="M 72.230469 89.070312 C 74.21875 89.070312 75.828125 87.457031 75.828125 85.46875 L 75.828125 78.269531 C 75.828125 76.28125 74.21875 74.667969 72.230469 74.667969 C 70.242188 74.667969 68.628906 76.28125 68.628906 78.269531 L 68.628906 85.46875 C 68.628906 87.457031 70.242188 89.070312 72.230469 89.070312 Z M 72.230469 89.070312 "/>
<path fill="none" stroke-width="2.88" stroke-linecap="butt" stroke-linejoin="miter" stroke="rgb(100%, 100%, 100%)" stroke-opacity="1" stroke-miterlimit="4" d="M 84.519531 89.070312 C 86.507812 89.070312 88.121094 87.457031 88.121094 85.46875 L 88.121094 78.269531 C 88.121094 76.28125 86.507812 74.667969 84.519531 74.667969 C 82.53125 74.667969 80.921875 76.28125 80.921875 78.269531 L 80.921875 85.46875 C 80.921875 87.457031 82.53125 89.070312 84.519531 89.070312 Z M 84.519531 89.070312 "/>
<path fill="none" stroke-width="2.88" stroke-linecap="butt" stroke-linejoin="miter" stroke="rgb(100%, 100%, 100%)" stroke-opacity="1" stroke-miterlimit="4" d="M 96.8125 89.070312 C 98.800781 89.070312 100.410156 87.457031 100.410156 85.46875 L 100.410156 78.269531 C 100.410156 76.28125 98.800781 74.667969 96.8125 74.667969 C 94.824219 74.667969 93.210938 76.28125 93.210938 78.269531 L 93.210938 85.46875 C 93.210938 87.457031 94.824219 89.070312 96.8125 89.070312 Z M 96.8125 89.070312 "/>
<path fill="none" stroke-width="2.88" stroke-linecap="butt" stroke-linejoin="miter" stroke="rgb(100%, 100%, 100%)" stroke-opacity="1" stroke-miterlimit="4" d="M 43.998805 19.999782 C 43.998805 19.999782 30.999673 52.001191 19.999782 46.999021 C 13.999348 43.998805 21.999022 26.000216 21.999022 26.000216 " transform="matrix(1.44, 0, 0, 1.44, 2.88, 2.88)"/>
</svg>
