<?xml version="1.0" encoding="UTF-8"?>
<svg xmlns="http://www.w3.org/2000/svg" xmlns:xlink="http://www.w3.org/1999/xlink" width="77.760002" height="77.760002" viewBox="0 0 77.760002 77.760002">
<path fill-rule="nonzero" fill="rgb(31.372549%, 34.509804%, 38.039216%)" fill-opacity="1" d="M 38.878906 74.878906 C 58.761719 74.878906 74.878906 58.761719 74.878906 38.878906 C 74.878906 18.996094 58.761719 2.878906 38.878906 2.878906 C 18.996094 2.878906 2.878906 18.996094 2.878906 38.878906 C 2.878906 58.761719 18.996094 74.878906 38.878906 74.878906 Z M 38.878906 74.878906 "/>
<path fill="none" stroke-width="2.88" stroke-linecap="butt" stroke-linejoin="miter" stroke="rgb(100%, 100%, 100%)" stroke-opacity="1" stroke-miterlimit="4" d="M 23.997669 25.997723 L 23.997669 73.998484 C 23.997669 77.999678 27.998863 80.997182 32.000056 79.003367 L 73.00212 56.996802 C 75.999624 55.002986 75.999624 51.001793 73.300514 49.001196 L 32.29845 22.003311 C 29.300946 20.002714 24.302845 22.600099 24.302845 25.997723 " transform="matrix(0.576, 0, 0, 0.576, 14.4, 10.08)"/>
</svg>
