<?xml version="1.0" encoding="UTF-8"?>
<svg xmlns="http://www.w3.org/2000/svg" xmlns:xlink="http://www.w3.org/1999/xlink" width="437.76001" height="345.600006" viewBox="0 0 437.76001 345.600006">
<path fill-rule="nonzero" fill="rgb(94.117647%, 94.117647%, 94.117647%)" fill-opacity="1" stroke-width="2.88" stroke-linecap="butt" stroke-linejoin="miter" stroke="rgb(94.117647%, 94.117647%, 94.117647%)" stroke-opacity="1" stroke-miterlimit="4" d="M 0.00030985 0.000762939 L 100.000114 0.000762939 L 49.999728 100.000759 Z M 0.00030985 0.000762939 " transform="matrix(4.032, 0, 0, 1.44, 17.280001, 141.119995)"/>
<path fill-rule="nonzero" fill="rgb(0%, 81.960784%, 37.254902%)" fill-opacity="1" stroke-width="2.88" stroke-linecap="butt" stroke-linejoin="miter" stroke="rgb(0%, 81.960784%, 37.254902%)" stroke-opacity="1" stroke-miterlimit="4" d="M 17.28125 146.878906 L 420.480469 146.878906 C 428.433594 146.878906 434.878906 140.433594 434.878906 132.480469 L 434.878906 17.28125 C 434.878906 9.328125 428.433594 2.878906 420.480469 2.878906 L 17.28125 2.878906 C 9.328125 2.878906 2.878906 9.328125 2.878906 17.28125 L 2.878906 132.480469 C 2.878906 140.433594 9.328125 146.878906 17.28125 146.878906 Z M 17.28125 146.878906 "/>
<path fill-rule="nonzero" fill="rgb(31.372549%, 34.509804%, 38.039216%)" fill-opacity="1" stroke-width="2.88" stroke-linecap="butt" stroke-linejoin="miter" stroke="rgb(100%, 100%, 100%)" stroke-opacity="1" stroke-miterlimit="4" d="M 132.480469 342.71875 L 305.28125 342.71875 C 317.210938 342.71875 326.878906 333.050781 326.878906 321.121094 L 326.878906 292.320312 C 326.878906 280.390625 317.210938 270.71875 305.28125 270.71875 L 132.480469 270.71875 C 120.550781 270.71875 110.878906 280.390625 110.878906 292.320312 L 110.878906 321.121094 C 110.878906 333.050781 120.550781 342.71875 132.480469 342.71875 Z M 132.480469 342.71875 "/>
<path fill-rule="nonzero" fill="rgb(100%, 100%, 100%)" fill-opacity="1" d="M 154.078125 306.71875 C 154.078125 314.671875 147.632812 321.121094 139.679688 321.121094 C 131.726562 321.121094 125.28125 314.671875 125.28125 306.71875 C 125.28125 298.765625 131.726562 292.320312 139.679688 292.320312 C 147.632812 292.320312 154.078125 298.765625 154.078125 306.71875 Z M 154.078125 306.71875 "/>
<path fill="none" stroke-width="4.32" stroke-linecap="butt" stroke-linejoin="miter" stroke="rgb(100%, 100%, 100%)" stroke-opacity="1" stroke-miterlimit="4" d="M 168.480469 306.71875 L 312.480469 306.71875 "/>
<path fill-rule="nonzero" fill="rgb(100%, 100%, 100%)" fill-opacity="1" d="M 141.371094 89.28125 L 141.371094 62.4375 L 150.070312 62.4375 C 153.367188 62.4375 155.515625 62.570312 156.515625 62.839844 C 158.054688 63.242188 159.339844 64.121094 160.378906 65.46875 C 161.417969 66.816406 161.933594 68.558594 161.933594 70.695312 C 161.933594 72.34375 161.636719 73.730469 161.039062 74.851562 C 160.441406 75.976562 159.679688 76.859375 158.757812 77.5 C 157.835938 78.140625 156.898438 78.5625 155.949219 78.769531 C 154.65625 79.027344 152.78125 79.15625 150.328125 79.15625 L 146.792969 79.15625 L 146.792969 89.28125 Z M 146.792969 66.980469 L 146.792969 74.597656 L 149.757812 74.597656 C 151.894531 74.597656 153.324219 74.457031 154.042969 74.175781 C 154.761719 73.894531 155.328125 73.453125 155.738281 72.855469 C 156.148438 72.257812 156.351562 71.5625 156.351562 70.769531 C 156.351562 69.792969 156.0625 68.988281 155.488281 68.351562 C 154.914062 67.71875 154.191406 67.320312 153.3125 67.164062 C 152.664062 67.039062 151.363281 66.980469 149.410156 66.980469 Z M 171.273438 89.28125 L 166.128906 89.28125 L 166.128906 69.835938 L 170.90625 69.835938 L 170.90625 72.601562 C 171.726562 71.292969 172.460938 70.433594 173.113281 70.019531 C 173.765625 69.605469 174.507812 69.394531 175.339844 69.394531 C 176.511719 69.394531 177.640625 69.71875 178.726562 70.367188 L 177.132812 74.851562 C 176.265625 74.289062 175.460938 74.011719 174.714844 74.011719 C 173.996094 74.011719 173.386719 74.207031 172.882812 74.605469 C 172.382812 75.003906 171.992188 75.71875 171.703125 76.757812 C 171.417969 77.792969 171.273438 79.96875 171.273438 83.273438 Z M 179.75 79.285156 C 179.75 77.574219 180.171875 75.921875 181.015625 74.320312 C 181.859375 72.722656 183.050781 71.5 184.59375 70.660156 C 186.136719 69.816406 187.863281 69.394531 189.765625 69.394531 C 192.707031 69.394531 195.121094 70.351562 197 72.261719 C 198.878906 74.171875 199.820312 76.585938 199.820312 79.503906 C 199.820312 82.445312 198.871094 84.882812 196.972656 86.820312 C 195.074219 88.753906 192.683594 89.71875 189.804688 89.71875 C 188.023438 89.71875 186.320312 89.316406 184.703125 88.511719 C 183.085938 87.707031 181.855469 86.527344 181.015625 84.96875 C 180.171875 83.414062 179.75 81.515625 179.75 79.285156 Z M 185.023438 79.558594 C 185.023438 81.488281 185.484375 82.964844 186.398438 83.988281 C 187.3125 85.015625 188.441406 85.527344 189.785156 85.527344 C 191.128906 85.527344 192.253906 85.015625 193.164062 83.988281 C 194.074219 82.964844 194.527344 81.476562 194.527344 79.523438 C 194.527344 77.617188 194.074219 76.152344 193.164062 75.128906 C 192.253906 74.101562 191.128906 73.589844 189.785156 73.589844 C 188.441406 73.589844 187.3125 74.101562 186.398438 75.128906 C 185.484375 76.152344 185.023438 77.628906 185.023438 79.558594 Z M 201.375 89.28125 L 208.390625 79.265625 L 201.667969 69.835938 L 207.949219 69.835938 L 211.390625 75.183594 L 215.015625 69.835938 L 221.058594 69.835938 L 214.46875 79.046875 L 221.664062 89.28125 L 215.347656 89.28125 L 211.390625 83.257812 L 207.398438 89.28125 Z M 224.320312 69.835938 L 229.0625 69.835938 L 229.0625 72.492188 C 230.757812 70.429688 232.777344 69.394531 235.121094 69.394531 C 236.367188 69.394531 237.449219 69.652344 238.363281 70.164062 C 239.277344 70.675781 240.027344 71.453125 240.613281 72.492188 C 241.46875 71.453125 242.390625 70.679688 243.378906 70.164062 C 244.367188 69.652344 245.425781 69.394531 246.546875 69.394531 C 247.976562 69.394531 249.183594 69.6875 250.171875 70.265625 C 251.160156 70.84375 251.902344 71.695312 252.390625 72.820312 C 252.742188 73.648438 252.917969 74.992188 252.917969 76.847656 L 252.917969 89.28125 L 247.773438 89.28125 L 247.773438 78.167969 C 247.773438 76.238281 247.597656 74.992188 247.242188 74.429688 C 246.765625 73.699219 246.035156 73.332031 245.046875 73.332031 C 244.328125 73.332031 243.648438 73.550781 243.015625 73.992188 C 242.378906 74.429688 241.921875 75.074219 241.640625 75.921875 C 241.359375 76.773438 241.21875 78.113281 241.21875 79.941406 L 241.21875 89.28125 L 236.074219 89.28125 L 236.074219 78.625 C 236.074219 76.734375 235.984375 75.511719 235.800781 74.960938 C 235.617188 74.414062 235.332031 74.003906 234.949219 73.734375 C 234.5625 73.464844 234.042969 73.332031 233.382812 73.332031 C 232.589844 73.332031 231.875 73.546875 231.238281 73.972656 C 230.605469 74.402344 230.152344 75.015625 229.875 75.824219 C 229.601562 76.628906 229.464844 77.964844 229.464844 79.832031 L 229.464844 89.28125 L 224.320312 89.28125 Z M 256.855469 79.285156 C 256.855469 77.574219 257.277344 75.921875 258.121094 74.320312 C 258.964844 72.722656 260.15625 71.5 261.699219 70.660156 C 263.242188 69.816406 264.96875 69.394531 266.871094 69.394531 C 269.8125 69.394531 272.226562 70.351562 274.105469 72.261719 C 275.984375 74.171875 276.925781 76.585938 276.925781 79.503906 C 276.925781 82.445312 275.976562 84.882812 274.078125 86.820312 C 272.179688 88.753906 269.789062 89.71875 266.910156 89.71875 C 265.128906 89.71875 263.425781 89.316406 261.808594 88.511719 C 260.191406 87.707031 258.960938 86.527344 258.121094 84.96875 C 257.277344 83.414062 256.855469 81.515625 256.855469 79.285156 Z M 262.128906 79.558594 C 262.128906 81.488281 262.589844 82.964844 263.503906 83.988281 C 264.417969 85.015625 265.546875 85.527344 266.890625 85.527344 C 268.234375 85.527344 269.359375 85.015625 270.269531 83.988281 C 271.179688 82.964844 271.632812 81.476562 271.632812 79.523438 C 271.632812 77.617188 271.179688 76.152344 270.269531 75.128906 C 269.359375 74.101562 268.234375 73.589844 266.890625 73.589844 C 265.546875 73.589844 264.417969 74.101562 263.503906 75.128906 C 262.589844 76.152344 262.128906 77.628906 262.128906 79.558594 Z M 278.480469 89.28125 L 285.496094 79.265625 L 278.773438 69.835938 L 285.054688 69.835938 L 288.496094 75.183594 L 292.121094 69.835938 L 298.164062 69.835938 L 291.574219 79.046875 L 298.769531 89.28125 L 292.453125 89.28125 L 288.496094 83.257812 L 284.503906 89.28125 Z M 138.644531 55.332031 "/>
</svg>
