<?xml version="1.0" encoding="UTF-8"?>
<svg xmlns="http://www.w3.org/2000/svg" xmlns:xlink="http://www.w3.org/1999/xlink" width="149.759995" height="149.759995" viewBox="0 0 149.759995 149.759995">
<path fill-rule="nonzero" fill="rgb(0%, 81.960784%, 37.254902%)" fill-opacity="1" d="M 24.480469 146.878906 L 125.28125 146.878906 C 137.210938 146.878906 146.878906 137.210938 146.878906 125.28125 L 146.878906 24.480469 C 146.878906 12.550781 137.210938 2.878906 125.28125 2.878906 L 24.480469 2.878906 C 12.550781 2.878906 2.878906 12.550781 2.878906 24.480469 L 2.878906 125.28125 C 2.878906 137.210938 12.550781 146.878906 24.480469 146.878906 Z M 24.480469 146.878906 "/>
<path fill-rule="nonzero" fill="rgb(100%, 100%, 100%)" fill-opacity="1" stroke-width="2.88" stroke-linecap="butt" stroke-linejoin="miter" stroke="rgb(100%, 100%, 100%)" stroke-opacity="1" stroke-miterlimit="4" d="M 44.640625 115.199219 L 110.878906 115.199219 C 112.46875 115.199219 113.761719 113.910156 113.761719 112.320312 L 113.761719 31.679688 C 113.761719 30.089844 112.46875 28.800781 110.878906 28.800781 L 44.640625 28.800781 C 43.050781 28.800781 41.761719 30.089844 41.761719 31.679688 L 41.761719 112.320312 C 41.761719 113.910156 43.050781 115.199219 44.640625 115.199219 Z M 44.640625 115.199219 "/>
<path fill-rule="nonzero" fill="rgb(100%, 100%, 100%)" fill-opacity="1" stroke-width="2.88" stroke-linecap="butt" stroke-linejoin="round" stroke="rgb(0%, 81.960784%, 37.254902%)" stroke-opacity="1" stroke-miterlimit="4" d="M 45.484375 32.523438 L 107.402344 32.523438 C 109.324219 32.523438 110.285156 33.484375 110.285156 35.402344 L 110.285156 118.925781 C 110.285156 120.84375 109.324219 121.804688 107.402344 121.804688 L 41.164062 121.804688 C 39.242188 121.804688 38.285156 120.84375 38.285156 118.925781 L 38.285156 32.523438 C 38.285156 30.601562 39.175781 30 40.957031 30.714844 L 42.808594 31.453125 Z M 45.484375 32.523438 "/>
<path fill="none" stroke-width="2.88" stroke-linecap="butt" stroke-linejoin="miter" stroke="rgb(0%, 81.960784%, 37.254902%)" stroke-opacity="1" stroke-miterlimit="4" d="M 38.285156 75.722656 L 52.683594 75.722656 "/>
<path fill="none" stroke-width="2.88" stroke-linecap="butt" stroke-linejoin="miter" stroke="rgb(0%, 81.960784%, 37.254902%)" stroke-opacity="1" stroke-miterlimit="4" d="M 52.683594 75.722656 L 59.882812 68.523438 C 64.683594 63.722656 71.882812 61.324219 81.484375 61.324219 L 95.882812 61.324219 "/>
<path fill="none" stroke-width="2.88" stroke-linecap="butt" stroke-linejoin="miter" stroke="rgb(0%, 81.960784%, 37.254902%)" stroke-opacity="1" stroke-miterlimit="4" d="M 52.683594 75.722656 L 59.882812 82.921875 C 64.683594 87.722656 69.484375 90.125 74.285156 90.125 L 81.484375 90.125 "/>
<path fill-rule="nonzero" fill="rgb(0%, 81.960784%, 37.254902%)" fill-opacity="1" d="M 98.761719 61.324219 L 93.164062 66.921875 C 91.804688 68.28125 91.125 68 91.125 66.082031 L 91.125 56 C 91.125 54.082031 91.78125 53.824219 93.089844 55.226562 L 96.800781 59.214844 Z M 98.761719 61.324219 "/>
<path fill-rule="nonzero" fill="rgb(0%, 81.960784%, 37.254902%)" fill-opacity="1" stroke-width="2.88" stroke-linecap="butt" stroke-linejoin="miter" stroke="rgb(0%, 81.960784%, 37.254902%)" stroke-opacity="1" stroke-miterlimit="4" d="M 81.628906 90.125 C 81.628906 90.203125 81.5625 90.265625 81.484375 90.265625 C 81.402344 90.265625 81.339844 90.203125 81.339844 90.125 C 81.339844 90.042969 81.402344 89.980469 81.484375 89.980469 C 81.5625 89.980469 81.628906 90.042969 81.628906 90.125 Z M 81.628906 90.125 "/>
<path fill="none" stroke-width="2.88" stroke-linecap="butt" stroke-linejoin="miter" stroke="rgb(0%, 81.960784%, 37.254902%)" stroke-opacity="1" stroke-miterlimit="4" d="M 81.484375 90.125 L 86.574219 85.03125 "/>
<path fill="none" stroke-width="2.88" stroke-linecap="butt" stroke-linejoin="miter" stroke="rgb(0%, 81.960784%, 37.254902%)" stroke-opacity="1" stroke-miterlimit="4" d="M 81.484375 90.125 L 86.574219 95.214844 "/>
<path fill="none" stroke-width="2.88" stroke-linecap="butt" stroke-linejoin="miter" stroke="rgb(0%, 81.960784%, 37.254902%)" stroke-opacity="1" stroke-miterlimit="4" d="M 81.484375 90.125 L 76.390625 95.214844 "/>
<path fill="none" stroke-width="2.88" stroke-linecap="butt" stroke-linejoin="miter" stroke="rgb(0%, 81.960784%, 37.254902%)" stroke-opacity="1" stroke-miterlimit="4" d="M 81.484375 90.125 L 76.390625 85.03125 "/>
</svg>
