<?xml version="1.0" encoding="UTF-8"?>
<svg xmlns="http://www.w3.org/2000/svg" xmlns:xlink="http://www.w3.org/1999/xlink" width="149.759995" height="149.759995" viewBox="0 0 149.759995 149.759995">
<path fill-rule="nonzero" fill="rgb(0%, 81.960784%, 37.254902%)" fill-opacity="1" d="M 24.480469 146.878906 L 125.28125 146.878906 C 137.210938 146.878906 146.878906 137.210938 146.878906 125.28125 L 146.878906 24.480469 C 146.878906 12.550781 137.210938 2.878906 125.28125 2.878906 L 24.480469 2.878906 C 12.550781 2.878906 2.878906 12.550781 2.878906 24.480469 L 2.878906 125.28125 C 2.878906 137.210938 12.550781 146.878906 24.480469 146.878906 Z M 24.480469 146.878906 "/>
<path fill="none" stroke-width="2.88" stroke-linecap="butt" stroke-linejoin="miter" stroke="rgb(100%, 100%, 100%)" stroke-opacity="1" stroke-miterlimit="4" d="M 32 110.878906 L 40.640625 110.878906 C 46.207031 110.878906 50.71875 106.367188 50.71875 100.800781 L 50.71875 48.960938 C 50.71875 43.394531 46.207031 38.878906 40.640625 38.878906 L 32 38.878906 C 26.433594 38.878906 21.917969 43.394531 21.917969 48.960938 L 21.917969 100.800781 C 21.917969 106.367188 26.433594 110.878906 32 110.878906 Z M 32 110.878906 "/>
<path fill="none" stroke-width="2.88" stroke-linecap="butt" stroke-linejoin="miter" stroke="rgb(100%, 100%, 100%)" stroke-opacity="1" stroke-miterlimit="4" d="M 65.222656 109.191406 L 70.980469 109.191406 C 73.367188 109.191406 75.300781 107.257812 75.300781 104.871094 L 75.300781 91.914062 C 75.300781 89.527344 73.367188 87.59375 70.980469 87.59375 L 65.222656 87.59375 C 62.835938 87.59375 60.902344 89.527344 60.902344 91.914062 L 60.902344 104.871094 C 60.902344 107.257812 62.835938 109.191406 65.222656 109.191406 Z M 65.222656 109.191406 "/>
<path fill="none" stroke-width="2.88" stroke-linecap="butt" stroke-linejoin="miter" stroke="rgb(100%, 100%, 100%)" stroke-opacity="1" stroke-miterlimit="4" d="M 91.492188 109.191406 L 97.25 109.191406 C 99.636719 109.191406 101.570312 107.257812 101.570312 104.871094 L 101.570312 91.914062 C 101.570312 89.527344 99.636719 87.59375 97.25 87.59375 L 91.492188 87.59375 C 89.105469 87.59375 87.171875 89.527344 87.171875 91.914062 L 87.171875 104.871094 C 87.171875 107.257812 89.105469 109.191406 91.492188 109.191406 Z M 91.492188 109.191406 "/>
<path fill="none" stroke-width="2.88" stroke-linecap="butt" stroke-linejoin="miter" stroke="rgb(100%, 100%, 100%)" stroke-opacity="1" stroke-miterlimit="4" d="M 117.761719 109.191406 L 123.519531 109.191406 C 125.90625 109.191406 127.839844 107.257812 127.839844 104.871094 L 127.839844 91.914062 C 127.839844 89.527344 125.90625 87.59375 123.519531 87.59375 L 117.761719 87.59375 C 115.375 87.59375 113.441406 89.527344 113.441406 91.914062 L 113.441406 104.871094 C 113.441406 107.257812 115.375 109.191406 117.761719 109.191406 Z M 117.761719 109.191406 "/>
</svg>
