<?xml version="1.0" encoding="UTF-8"?>
<svg xmlns="http://www.w3.org/2000/svg" xmlns:xlink="http://www.w3.org/1999/xlink" width="149.759995" height="149.759995" viewBox="0 0 149.759995 149.759995">
<path fill-rule="nonzero" fill="rgb(31.372549%, 34.509804%, 38.039216%)" fill-opacity="1" d="M 24.480469 146.878906 L 125.28125 146.878906 C 137.210938 146.878906 146.878906 137.210938 146.878906 125.28125 L 146.878906 24.480469 C 146.878906 12.550781 137.210938 2.878906 125.28125 2.878906 L 24.480469 2.878906 C 12.550781 2.878906 2.878906 12.550781 2.878906 24.480469 L 2.878906 125.28125 C 2.878906 137.210938 12.550781 146.878906 24.480469 146.878906 Z M 24.480469 146.878906 "/>
<path fill="none" stroke-width="14.4" stroke-linecap="butt" stroke-linejoin="miter" stroke="rgb(100%, 100%, 100%)" stroke-opacity="1" stroke-miterlimit="4" d="M 74.878906 17.28125 L 74.878906 132.480469 "/>
<path fill="none" stroke-width="14.4" stroke-linecap="butt" stroke-linejoin="miter" stroke="rgb(100%, 100%, 100%)" stroke-opacity="1" stroke-miterlimit="4" d="M 17.28125 74.878906 L 132.480469 74.878906 "/>
<path fill="none" stroke-width="14.4" stroke-linecap="butt" stroke-linejoin="miter" stroke="rgb(100%, 100%, 100%)" stroke-opacity="1" stroke-miterlimit="4" d="M 35.125 35.125 L 114.632812 114.632812 "/>
<path fill="none" stroke-width="14.4" stroke-linecap="butt" stroke-linejoin="miter" stroke="rgb(100%, 100%, 100%)" stroke-opacity="1" stroke-miterlimit="4" d="M 35.125 114.632812 L 114.632812 35.125 "/>
<path fill-rule="nonzero" fill="rgb(100%, 100%, 100%)" fill-opacity="1" stroke-width="2.88" stroke-linecap="butt" stroke-linejoin="miter" stroke="rgb(100%, 100%, 100%)" stroke-opacity="1" stroke-miterlimit="4" d="M 118.078125 74.878906 C 118.078125 98.738281 98.738281 118.078125 74.878906 118.078125 C 51.019531 118.078125 31.679688 98.738281 31.679688 74.878906 C 31.679688 51.019531 51.019531 31.679688 74.878906 31.679688 C 98.738281 31.679688 118.078125 51.019531 118.078125 74.878906 Z M 118.078125 74.878906 "/>
<path fill-rule="nonzero" fill="rgb(31.372549%, 34.509804%, 38.039216%)" fill-opacity="1" stroke-width="2.88" stroke-linecap="butt" stroke-linejoin="miter" stroke="rgb(100%, 100%, 100%)" stroke-opacity="1" stroke-miterlimit="4" d="M 103.679688 74.878906 C 103.679688 90.785156 90.785156 103.679688 74.878906 103.679688 C 58.972656 103.679688 46.078125 90.785156 46.078125 74.878906 C 46.078125 58.972656 58.972656 46.078125 74.878906 46.078125 C 90.785156 46.078125 103.679688 58.972656 103.679688 74.878906 Z M 103.679688 74.878906 "/>
<path fill-rule="nonzero" fill="rgb(100%, 100%, 100%)" fill-opacity="1" stroke-width="2.88" stroke-linecap="butt" stroke-linejoin="miter" stroke="rgb(100%, 100%, 100%)" stroke-opacity="1" stroke-miterlimit="4" d="M 89.28125 74.878906 C 89.28125 82.832031 82.832031 89.28125 74.878906 89.28125 C 66.925781 89.28125 60.480469 82.832031 60.480469 74.878906 C 60.480469 66.925781 66.925781 60.480469 74.878906 60.480469 C 82.832031 60.480469 89.28125 66.925781 89.28125 74.878906 Z M 89.28125 74.878906 "/>
</svg>
