<?xml version="1.0" encoding="UTF-8"?>
<svg xmlns="http://www.w3.org/2000/svg" xmlns:xlink="http://www.w3.org/1999/xlink" width="437.76001" height="149.759995" viewBox="0 0 437.76001 149.759995">
<path fill-rule="nonzero" fill="rgb(31.372549%, 34.509804%, 38.039216%)" fill-opacity="1" stroke-width="2.88" stroke-linecap="butt" stroke-linejoin="miter" stroke="rgb(100%, 100%, 100%)" stroke-opacity="1" stroke-miterlimit="4" d="M 31.679688 146.878906 L 406.078125 146.878906 C 421.984375 146.878906 434.878906 133.984375 434.878906 118.078125 L 434.878906 31.679688 C 434.878906 15.773438 421.984375 2.878906 406.078125 2.878906 L 31.679688 2.878906 C 15.773438 2.878906 2.878906 15.773438 2.878906 31.679688 L 2.878906 118.078125 C 2.878906 133.984375 15.773438 146.878906 31.679688 146.878906 Z M 31.679688 146.878906 "/>
<path fill-rule="nonzero" fill="rgb(100%, 100%, 100%)" fill-opacity="1" d="M 46.078125 74.878906 C 46.078125 82.832031 39.632812 89.28125 31.679688 89.28125 C 23.726562 89.28125 17.28125 82.832031 17.28125 74.878906 C 17.28125 66.925781 23.726562 60.480469 31.679688 60.480469 C 39.632812 60.480469 46.078125 66.925781 46.078125 74.878906 Z M 46.078125 74.878906 "/>
<path fill="none" stroke-width="4.32" stroke-linecap="butt" stroke-linejoin="miter" stroke="rgb(100%, 100%, 100%)" stroke-opacity="1" stroke-miterlimit="4" d="M 60.480469 74.878906 L 420.480469 74.878906 "/>
</svg>
