<?xml version="1.0" encoding="UTF-8"?>
<svg xmlns="http://www.w3.org/2000/svg" xmlns:xlink="http://www.w3.org/1999/xlink" width="149.759995" height="149.759995" viewBox="0 0 149.759995 149.759995">
<path fill-rule="nonzero" fill="rgb(31.372549%, 34.509804%, 38.039216%)" fill-opacity="1" d="M 24.480469 146.878906 L 125.28125 146.878906 C 137.210938 146.878906 146.878906 137.210938 146.878906 125.28125 L 146.878906 24.480469 C 146.878906 12.550781 137.210938 2.878906 125.28125 2.878906 L 24.480469 2.878906 C 12.550781 2.878906 2.878906 12.550781 2.878906 24.480469 L 2.878906 125.28125 C 2.878906 137.210938 12.550781 146.878906 24.480469 146.878906 Z M 24.480469 146.878906 "/>
<path fill="none" stroke-width="2.88" stroke-linecap="butt" stroke-linejoin="miter" stroke="rgb(100%, 100%, 100%)" stroke-opacity="1" stroke-miterlimit="4" d="M 89.28125 60.480469 C 89.28125 68.433594 82.832031 74.878906 74.878906 74.878906 C 66.925781 74.878906 60.480469 68.433594 60.480469 60.480469 C 60.480469 52.527344 66.925781 46.078125 74.878906 46.078125 C 82.832031 46.078125 89.28125 52.527344 89.28125 60.480469 Z M 89.28125 60.480469 "/>
<path fill="none" stroke-width="2.88" stroke-linecap="butt" stroke-linejoin="miter" stroke="rgb(100%, 100%, 100%)" stroke-opacity="1" stroke-miterlimit="4" d="M 29.998697 79.998695 L 29.998697 60.000866 C 42.753687 54.43446 57.247502 54.43446 69.99978 60.000866 L 69.99978 79.998695 " transform="matrix(1.44, 0, 0, 1.44, 2.88, 2.88)"/>
</svg>
