<?xml version="1.0" encoding="UTF-8"?>
<svg width="100" height="100" version="1.1" viewBox="0 0 100 100" xmlns="http://www.w3.org/2000/svg">
 <rect width="100" height="100" rx="16.5" ry="13.8" fill="#00d15f"/>
 <path d="m28 28c-1.04 1.04-0.92 2.82 0.262 4.01l12.9 12.9a10.2 10.2 0 0 0 0 10.2l-12.9 12.9c-1.18 1.18-1.3 2.97-0.262 4.01 1.04 1.04 2.82 0.92 4.01-0.262l12.9-12.9a10.2 10.2 0 0 0 10.2 0l12.9 12.9c1.18 1.18 2.97 1.3 4.01 0.262 1.04-1.04 0.92-2.82-0.262-4.01l-12.9-12.9a10.2 10.2 0 0 0 0-10.2l12.9-12.9c1.18-1.18 1.3-2.97 0.262-4.01-1.04-1.04-2.82-0.92-4.01 0.262l-12.9 12.9a10.2 10.2 0 0 0-10.2 0l-12.9-12.9c-1.18-1.18-2.97-1.3-4.01-0.262z" fill="#fff"/>
</svg>
