<?xml version="1.0" encoding="UTF-8"?>
<svg xmlns="http://www.w3.org/2000/svg" xmlns:xlink="http://www.w3.org/1999/xlink" width="149.759995" height="149.759995" viewBox="0 0 149.759995 149.759995">
<path fill-rule="nonzero" fill="rgb(0%, 81.960784%, 37.254902%)" fill-opacity="1" d="M 24.480469 146.878906 L 125.28125 146.878906 C 137.210938 146.878906 146.878906 137.210938 146.878906 125.28125 L 146.878906 24.480469 C 146.878906 12.550781 137.210938 2.878906 125.28125 2.878906 L 24.480469 2.878906 C 12.550781 2.878906 2.878906 12.550781 2.878906 24.480469 L 2.878906 125.28125 C 2.878906 137.210938 12.550781 146.878906 24.480469 146.878906 Z M 24.480469 146.878906 "/>
<path fill-rule="nonzero" fill="rgb(100%, 100%, 100%)" fill-opacity="1" d="M 89.28125 74.878906 C 89.28125 82.832031 82.832031 89.28125 74.878906 89.28125 C 66.925781 89.28125 60.480469 82.832031 60.480469 74.878906 C 60.480469 66.925781 66.925781 60.480469 74.878906 60.480469 C 82.832031 60.480469 89.28125 66.925781 89.28125 74.878906 Z M 89.28125 74.878906 "/>
<path fill="none" stroke-width="2.88" stroke-linecap="butt" stroke-linejoin="miter" stroke="rgb(100%, 100%, 100%)" stroke-opacity="1" stroke-miterlimit="4" d="M 29.998697 29.998697 L 69.99978 69.99978 M 69.99978 29.998697 L 29.998697 69.99978 " transform="matrix(1.44, 0, 0, 1.44, 2.88, 2.88)"/>
</svg>
