<?xml version="1.0" encoding="UTF-8"?>
<svg xmlns="http://www.w3.org/2000/svg" xmlns:xlink="http://www.w3.org/1999/xlink" width="149.759995" height="149.759995" viewBox="0 0 149.759995 149.759995">
<path fill-rule="nonzero" fill="rgb(0%, 81.960784%, 37.254902%)" fill-opacity="1" d="M 24.480469 146.878906 L 125.28125 146.878906 C 137.210938 146.878906 146.878906 137.210938 146.878906 125.28125 L 146.878906 24.480469 C 146.878906 12.550781 137.210938 2.878906 125.28125 2.878906 L 24.480469 2.878906 C 12.550781 2.878906 2.878906 12.550781 2.878906 24.480469 L 2.878906 125.28125 C 2.878906 137.210938 12.550781 146.878906 24.480469 146.878906 Z M 24.480469 146.878906 "/>
<path fill="none" stroke-width="2.88" stroke-linecap="butt" stroke-linejoin="miter" stroke="rgb(100%, 100%, 100%)" stroke-opacity="1" stroke-miterlimit="4" d="M 15.000325 44.999781 L 44.999781 44.999781 L 44.999781 15.000325 M 44.999781 44.999781 L 19.999782 19.999782 M 54.998696 85.000865 L 85.000865 85.000865 L 85.000865 54.998696 M 85.000865 85.000865 L 60.000866 60.000866 " transform="matrix(1.44, 0, 0, 1.44, 2.88, 2.88)"/>
<path fill="none" stroke-width="2.88" stroke-linecap="butt" stroke-linejoin="miter" stroke="rgb(100%, 100%, 100%)" stroke-opacity="1" stroke-miterlimit="4" d="M 85.132812 68.945312 L 119.695312 68.945312 C 122.082031 68.945312 124.015625 67.011719 124.015625 64.625 L 124.015625 30.066406 C 124.015625 27.679688 122.082031 25.746094 119.695312 25.746094 L 85.132812 25.746094 C 82.75 25.746094 80.816406 27.679688 80.816406 30.066406 L 80.816406 64.625 C 80.816406 67.011719 82.75 68.945312 85.132812 68.945312 Z M 85.132812 68.945312 "/>
<path fill="none" stroke-width="2.88" stroke-linecap="butt" stroke-linejoin="miter" stroke="rgb(100%, 100%, 100%)" stroke-opacity="1" stroke-miterlimit="4" d="M 30.066406 124.015625 L 64.625 124.015625 C 67.011719 124.015625 68.945312 122.082031 68.945312 119.695312 L 68.945312 85.132812 C 68.945312 82.75 67.011719 80.816406 64.625 80.816406 L 30.066406 80.816406 C 27.679688 80.816406 25.746094 82.75 25.746094 85.132812 L 25.746094 119.695312 C 25.746094 122.082031 27.679688 124.015625 30.066406 124.015625 Z M 30.066406 124.015625 "/>
</svg>
