<?xml version="1.0" encoding="UTF-8"?>
<svg width="100" height="100" version="1.1" viewBox="0 0 100 100" xmlns="http://www.w3.org/2000/svg">
 <rect width="100" height="100" rx="16.5" ry="13.8" fill="#00d15f"/>
 <rect x="52" y="54.4" width="33.9" height="32" rx="7.53" ry="10.3" fill="#00d15f" stroke="#fff" stroke-width="2.2"/>
 <rect x="14.1" y="13.6" width="33.9" height="32" rx="7.53" ry="10.3" fill="#00d15f" stroke="#fff" stroke-width="2.2"/>
 <g transform="translate(-1.64 -1.18)">
  <path d="m57.4 44 25.5-25.5" fill="#00d15f" stop-color="#000000"/>
  <path d="m81.9 17.6-25.5 25.5 1.9 1.91 25.5-25.5z" fill="#fff" stop-color="#000000"/>
  <path d="m71.9 16.7a1.35 1.35 0 0 0-1.35 1.35 1.35 1.35 0 0 0 1.35 1.35h10.1v10.1a1.35 1.35 0 0 0 1.35 1.35 1.35 1.35 0 0 0 1.35-1.35v-12.8z" fill="#fff" stop-color="#000000" stroke-linecap="round"/>
 </g>
 <g transform="translate(-39.5 39.5)">
  <path d="m57.4 44 25.5-25.5" fill="#00d15f" stop-color="#000000"/>
  <path d="m81.9 17.6-25.5 25.5 1.9 1.91 25.5-25.5z" fill="#fff" stop-color="#000000"/>
  <path d="m71.9 16.7a1.35 1.35 0 0 0-1.35 1.35 1.35 1.35 0 0 0 1.35 1.35h10.1v10.1a1.35 1.35 0 0 0 1.35 1.35 1.35 1.35 0 0 0 1.35-1.35v-12.8z" fill="#fff" stop-color="#000000" stroke-linecap="round"/>
 </g>
</svg>
