<?xml version="1.0" encoding="UTF-8"?>
<svg xmlns="http://www.w3.org/2000/svg" xmlns:xlink="http://www.w3.org/1999/xlink" width="195.119995" height="149.759995" viewBox="0 0 195.119995 149.759995">
<path fill-rule="nonzero" fill="rgb(0%, 81.960784%, 37.254902%)" fill-opacity="1" d="M 47.160156 146.878906 L 147.960938 146.878906 C 159.890625 146.878906 169.558594 137.210938 169.558594 125.28125 L 169.558594 24.480469 C 169.558594 12.550781 159.890625 2.878906 147.960938 2.878906 L 47.160156 2.878906 C 35.230469 2.878906 25.558594 12.550781 25.558594 24.480469 L 25.558594 125.28125 C 25.558594 137.210938 35.230469 146.878906 47.160156 146.878906 Z M 47.160156 146.878906 "/>
<path fill-rule="nonzero" fill="rgb(100%, 100%, 100%)" fill-opacity="1" d="M 53.824219 53.40625 L 53.824219 61.304688 C 55.152344 59.75 56.742188 58.976562 58.585938 58.976562 C 59.53125 58.976562 60.386719 59.148438 61.148438 59.5 C 61.910156 59.851562 62.484375 60.304688 62.871094 60.851562 C 63.257812 61.398438 63.519531 62 63.660156 62.664062 C 63.804688 63.328125 63.875 64.359375 63.875 65.757812 L 63.875 74.882812 L 59.757812 74.882812 L 59.757812 66.664062 C 59.757812 65.035156 59.679688 64 59.523438 63.558594 C 59.367188 63.121094 59.089844 62.769531 58.695312 62.511719 C 58.300781 62.253906 57.804688 62.125 57.210938 62.125 C 56.527344 62.125 55.914062 62.289062 55.378906 62.621094 C 54.839844 62.953125 54.449219 63.453125 54.199219 64.125 C 53.949219 64.792969 53.824219 65.78125 53.824219 67.089844 L 53.824219 74.882812 L 49.710938 74.882812 L 49.710938 53.40625 Z M 75.183594 59.328125 L 75.183594 62.609375 L 72.371094 62.609375 L 72.371094 68.875 C 72.371094 70.144531 72.394531 70.886719 72.449219 71.097656 C 72.503906 71.304688 72.625 71.480469 72.816406 71.617188 C 73.007812 71.753906 73.238281 71.820312 73.511719 71.820312 C 73.894531 71.820312 74.445312 71.6875 75.167969 71.425781 L 75.519531 74.617188 C 74.5625 75.027344 73.476562 75.234375 72.265625 75.234375 C 71.523438 75.234375 70.855469 75.109375 70.261719 74.859375 C 69.664062 74.609375 69.226562 74.289062 68.949219 73.894531 C 68.671875 73.5 68.476562 72.964844 68.371094 72.289062 C 68.28125 71.8125 68.238281 70.84375 68.238281 69.390625 L 68.238281 62.609375 L 66.347656 62.609375 L 66.347656 59.328125 L 68.238281 59.328125 L 68.238281 56.234375 L 72.371094 53.832031 L 72.371094 59.328125 Z M 85.175781 59.328125 L 85.175781 62.609375 L 82.363281 62.609375 L 82.363281 68.875 C 82.363281 70.144531 82.386719 70.886719 82.441406 71.097656 C 82.496094 71.304688 82.617188 71.480469 82.808594 71.617188 C 83 71.753906 83.230469 71.820312 83.503906 71.820312 C 83.886719 71.820312 84.4375 71.6875 85.160156 71.425781 L 85.511719 74.617188 C 84.554688 75.027344 83.46875 75.234375 82.257812 75.234375 C 81.515625 75.234375 80.847656 75.109375 80.253906 74.859375 C 79.65625 74.609375 79.21875 74.289062 78.941406 73.894531 C 78.664062 73.5 78.46875 72.964844 78.363281 72.289062 C 78.273438 71.8125 78.230469 70.84375 78.230469 69.390625 L 78.230469 62.609375 L 76.339844 62.609375 L 76.339844 59.328125 L 78.230469 59.328125 L 78.230469 56.234375 L 82.363281 53.832031 L 82.363281 59.328125 Z M 87.910156 59.328125 L 91.75 59.328125 L 91.75 61.609375 C 92.246094 60.828125 92.921875 60.195312 93.769531 59.707031 C 94.621094 59.21875 95.5625 58.976562 96.597656 58.976562 C 98.40625 58.976562 99.9375 59.683594 101.195312 61.097656 C 102.457031 62.515625 103.085938 64.488281 103.085938 67.015625 C 103.085938 69.613281 102.453125 71.632812 101.183594 73.074219 C 99.914062 74.515625 98.375 75.234375 96.570312 75.234375 C 95.710938 75.234375 94.929688 75.0625 94.230469 74.722656 C 93.53125 74.378906 92.796875 73.792969 92.027344 72.964844 L 92.027344 80.800781 L 87.910156 80.800781 Z M 91.984375 66.839844 C 91.984375 68.589844 92.328125 69.878906 93.023438 70.714844 C 93.71875 71.550781 94.5625 71.96875 95.558594 71.96875 C 96.515625 71.96875 97.3125 71.585938 97.945312 70.816406 C 98.578125 70.050781 98.898438 68.792969 98.898438 67.046875 C 98.898438 65.414062 98.570312 64.203125 97.914062 63.414062 C 97.261719 62.621094 96.453125 62.226562 95.484375 62.226562 C 94.476562 62.226562 93.644531 62.613281 92.980469 63.390625 C 92.316406 64.167969 91.984375 65.316406 91.984375 66.839844 Z M 104.90625 70.445312 L 109.039062 69.8125 C 109.214844 70.613281 109.570312 71.222656 110.105469 71.636719 C 110.644531 72.054688 111.394531 72.261719 112.363281 72.261719 C 113.425781 72.261719 114.226562 72.066406 114.765625 71.675781 C 115.125 71.402344 115.304688 71.035156 115.304688 70.578125 C 115.304688 70.265625 115.210938 70.003906 115.015625 69.800781 C 114.808594 69.605469 114.351562 69.421875 113.636719 69.257812 C 110.316406 68.523438 108.210938 67.855469 107.324219 67.25 C 106.09375 66.410156 105.476562 65.242188 105.476562 63.75 C 105.476562 62.402344 106.007812 61.269531 107.074219 60.351562 C 108.140625 59.433594 109.789062 58.976562 112.023438 58.976562 C 114.152344 58.976562 115.734375 59.320312 116.773438 60.015625 C 117.808594 60.707031 118.519531 61.734375 118.910156 63.089844 L 115.027344 63.808594 C 114.863281 63.203125 114.546875 62.738281 114.082031 62.417969 C 113.617188 62.09375 112.957031 61.933594 112.097656 61.933594 C 111.015625 61.933594 110.238281 62.085938 109.769531 62.386719 C 109.457031 62.601562 109.300781 62.882812 109.300781 63.222656 C 109.300781 63.515625 109.4375 63.765625 109.710938 63.96875 C 110.082031 64.242188 111.363281 64.628906 113.554688 65.125 C 115.75 65.625 117.28125 66.234375 118.148438 66.957031 C 119.007812 67.691406 119.4375 68.710938 119.4375 70.019531 C 119.4375 71.445312 118.84375 72.671875 117.648438 73.695312 C 116.457031 74.722656 114.695312 75.234375 112.363281 75.234375 C 110.242188 75.234375 108.566406 74.804688 107.332031 73.945312 C 106.09375 73.085938 105.289062 71.917969 104.90625 70.445312 Z M 123.832031 63.441406 L 123.832031 59.328125 L 127.949219 59.328125 L 127.949219 63.441406 Z M 123.832031 74.882812 L 123.832031 70.765625 L 127.949219 70.765625 L 127.949219 74.882812 Z M 130.832031 75.25 L 136.148438 53.042969 L 139.238281 53.042969 L 133.863281 75.25 Z M 139.167969 75.25 L 144.484375 53.042969 L 147.574219 53.042969 L 142.199219 75.25 Z M 47.570312 47.722656 "/>
<path fill="none" stroke-width="1.44" stroke-linecap="butt" stroke-linejoin="miter" stroke="rgb(100%, 100%, 100%)" stroke-opacity="1" stroke-miterlimit="4" d="M 42.070312 18.050781 L 153.050781 18.050781 "/>
<path fill-rule="nonzero" fill="rgb(100%, 100%, 100%)" fill-opacity="1" stroke-width="2.88" stroke-linecap="butt" stroke-linejoin="miter" stroke="rgb(100%, 100%, 100%)" stroke-opacity="1" stroke-miterlimit="4" d="M 152.28125 12.960938 C 152.28125 13.753906 151.636719 14.398438 150.839844 14.398438 C 150.042969 14.398438 149.398438 13.753906 149.398438 12.960938 C 149.398438 12.164062 150.042969 11.519531 150.839844 11.519531 C 151.636719 11.519531 152.28125 12.164062 152.28125 12.960938 Z M 152.28125 12.960938 "/>
<path fill-rule="nonzero" fill="rgb(100%, 100%, 100%)" fill-opacity="1" stroke-width="2.88" stroke-linecap="butt" stroke-linejoin="miter" stroke="rgb(100%, 100%, 100%)" stroke-opacity="1" stroke-miterlimit="4" d="M 145.078125 12.960938 C 145.078125 13.753906 144.433594 14.398438 143.640625 14.398438 C 142.84375 14.398438 142.199219 13.753906 142.199219 12.960938 C 142.199219 12.164062 142.84375 11.519531 143.640625 11.519531 C 144.433594 11.519531 145.078125 12.164062 145.078125 12.960938 Z M 145.078125 12.960938 "/>
<path fill-rule="nonzero" fill="rgb(100%, 100%, 100%)" fill-opacity="1" stroke-width="2.88" stroke-linecap="butt" stroke-linejoin="miter" stroke="rgb(100%, 100%, 100%)" stroke-opacity="1" stroke-miterlimit="4" d="M 137.878906 12.960938 C 137.878906 13.753906 137.234375 14.398438 136.441406 14.398438 C 135.644531 14.398438 135 13.753906 135 12.960938 C 135 12.164062 135.644531 11.519531 136.441406 11.519531 C 137.234375 11.519531 137.878906 12.164062 137.878906 12.960938 Z M 137.878906 12.960938 "/>
</svg>
