<?xml version="1.0" encoding="UTF-8"?>
<svg xmlns="http://www.w3.org/2000/svg" xmlns:xlink="http://www.w3.org/1999/xlink" width="171.360001" height="149.759995" viewBox="0 0 171.360001 149.759995">
<path fill-rule="nonzero" fill="rgb(0%, 81.960784%, 37.254902%)" fill-opacity="1" d="M 35.28125 146.878906 L 136.078125 146.878906 C 148.007812 146.878906 157.679688 137.210938 157.679688 125.28125 L 157.679688 24.480469 C 157.679688 12.550781 148.007812 2.878906 136.078125 2.878906 L 35.28125 2.878906 C 23.351562 2.878906 13.679688 12.550781 13.679688 24.480469 L 13.679688 125.28125 C 13.679688 137.210938 23.351562 146.878906 35.28125 146.878906 Z M 35.28125 146.878906 "/>
<path fill-rule="nonzero" fill="rgb(100%, 100%, 100%)" fill-opacity="1" d="M 50.289062 53.40625 L 50.289062 61.304688 C 51.617188 59.75 53.207031 58.976562 55.050781 58.976562 C 55.996094 58.976562 56.851562 59.148438 57.613281 59.5 C 58.375 59.851562 58.949219 60.304688 59.335938 60.851562 C 59.722656 61.398438 59.984375 62 60.125 62.664062 C 60.269531 63.328125 60.339844 64.359375 60.339844 65.757812 L 60.339844 74.882812 L 56.222656 74.882812 L 56.222656 66.664062 C 56.222656 65.035156 56.144531 64 55.988281 63.558594 C 55.832031 63.121094 55.554688 62.769531 55.160156 62.511719 C 54.765625 62.253906 54.269531 62.125 53.675781 62.125 C 52.992188 62.125 52.378906 62.289062 51.84375 62.621094 C 51.304688 62.953125 50.914062 63.453125 50.664062 64.125 C 50.414062 64.792969 50.289062 65.78125 50.289062 67.089844 L 50.289062 74.882812 L 46.175781 74.882812 L 46.175781 53.40625 Z M 71.648438 59.328125 L 71.648438 62.609375 L 68.835938 62.609375 L 68.835938 68.875 C 68.835938 70.144531 68.859375 70.886719 68.914062 71.097656 C 68.96875 71.304688 69.089844 71.480469 69.28125 71.617188 C 69.472656 71.753906 69.703125 71.820312 69.976562 71.820312 C 70.359375 71.820312 70.910156 71.6875 71.632812 71.425781 L 71.984375 74.617188 C 71.027344 75.027344 69.941406 75.234375 68.730469 75.234375 C 67.988281 75.234375 67.320312 75.109375 66.726562 74.859375 C 66.128906 74.609375 65.691406 74.289062 65.414062 73.894531 C 65.136719 73.5 64.941406 72.964844 64.835938 72.289062 C 64.746094 71.8125 64.703125 70.84375 64.703125 69.390625 L 64.703125 62.609375 L 62.8125 62.609375 L 62.8125 59.328125 L 64.703125 59.328125 L 64.703125 56.234375 L 68.835938 53.832031 L 68.835938 59.328125 Z M 81.640625 59.328125 L 81.640625 62.609375 L 78.828125 62.609375 L 78.828125 68.875 C 78.828125 70.144531 78.851562 70.886719 78.90625 71.097656 C 78.960938 71.304688 79.082031 71.480469 79.273438 71.617188 C 79.464844 71.753906 79.695312 71.820312 79.96875 71.820312 C 80.351562 71.820312 80.902344 71.6875 81.625 71.425781 L 81.976562 74.617188 C 81.019531 75.027344 79.933594 75.234375 78.722656 75.234375 C 77.980469 75.234375 77.3125 75.109375 76.71875 74.859375 C 76.121094 74.609375 75.683594 74.289062 75.40625 73.894531 C 75.128906 73.5 74.933594 72.964844 74.828125 72.289062 C 74.738281 71.8125 74.695312 70.84375 74.695312 69.390625 L 74.695312 62.609375 L 72.804688 62.609375 L 72.804688 59.328125 L 74.695312 59.328125 L 74.695312 56.234375 L 78.828125 53.832031 L 78.828125 59.328125 Z M 84.375 59.328125 L 88.214844 59.328125 L 88.214844 61.609375 C 88.710938 60.828125 89.386719 60.195312 90.234375 59.707031 C 91.085938 59.21875 92.027344 58.976562 93.0625 58.976562 C 94.871094 58.976562 96.402344 59.683594 97.660156 61.097656 C 98.921875 62.515625 99.550781 64.488281 99.550781 67.015625 C 99.550781 69.613281 98.917969 71.632812 97.648438 73.074219 C 96.378906 74.515625 94.839844 75.234375 93.035156 75.234375 C 92.175781 75.234375 91.394531 75.0625 90.695312 74.722656 C 89.996094 74.378906 89.261719 73.792969 88.492188 72.964844 L 88.492188 80.800781 L 84.375 80.800781 Z M 88.449219 66.839844 C 88.449219 68.589844 88.792969 69.878906 89.488281 70.714844 C 90.183594 71.550781 91.027344 71.96875 92.023438 71.96875 C 92.980469 71.96875 93.777344 71.585938 94.410156 70.816406 C 95.042969 70.050781 95.363281 68.792969 95.363281 67.046875 C 95.363281 65.414062 95.035156 64.203125 94.378906 63.414062 C 93.726562 62.621094 92.917969 62.226562 91.949219 62.226562 C 90.941406 62.226562 90.109375 62.613281 89.445312 63.390625 C 88.78125 64.167969 88.449219 65.316406 88.449219 66.839844 Z M 103.609375 63.441406 L 103.609375 59.328125 L 107.726562 59.328125 L 107.726562 63.441406 Z M 103.609375 74.882812 L 103.609375 70.765625 L 107.726562 70.765625 L 107.726562 74.882812 Z M 110.613281 75.25 L 115.929688 53.042969 L 119.019531 53.042969 L 113.644531 75.25 Z M 118.949219 75.25 L 124.265625 53.042969 L 127.355469 53.042969 L 121.980469 75.25 Z M 44.035156 47.722656 "/>
<path fill="none" stroke-width="1.44" stroke-linecap="butt" stroke-linejoin="miter" stroke="rgb(100%, 100%, 100%)" stroke-opacity="1" stroke-miterlimit="4" d="M 30.1875 18.050781 L 141.171875 18.050781 "/>
<path fill-rule="nonzero" fill="rgb(100%, 100%, 100%)" fill-opacity="1" stroke-width="2.88" stroke-linecap="butt" stroke-linejoin="miter" stroke="rgb(100%, 100%, 100%)" stroke-opacity="1" stroke-miterlimit="4" d="M 140.398438 12.960938 C 140.398438 13.753906 139.753906 14.398438 138.960938 14.398438 C 138.164062 14.398438 137.519531 13.753906 137.519531 12.960938 C 137.519531 12.164062 138.164062 11.519531 138.960938 11.519531 C 139.753906 11.519531 140.398438 12.164062 140.398438 12.960938 Z M 140.398438 12.960938 "/>
<path fill-rule="nonzero" fill="rgb(100%, 100%, 100%)" fill-opacity="1" stroke-width="2.88" stroke-linecap="butt" stroke-linejoin="miter" stroke="rgb(100%, 100%, 100%)" stroke-opacity="1" stroke-miterlimit="4" d="M 133.199219 12.960938 C 133.199219 13.753906 132.554688 14.398438 131.761719 14.398438 C 130.964844 14.398438 130.320312 13.753906 130.320312 12.960938 C 130.320312 12.164062 130.964844 11.519531 131.761719 11.519531 C 132.554688 11.519531 133.199219 12.164062 133.199219 12.960938 Z M 133.199219 12.960938 "/>
<path fill-rule="nonzero" fill="rgb(100%, 100%, 100%)" fill-opacity="1" stroke-width="2.88" stroke-linecap="butt" stroke-linejoin="miter" stroke="rgb(100%, 100%, 100%)" stroke-opacity="1" stroke-miterlimit="4" d="M 126 12.960938 C 126 13.753906 125.355469 14.398438 124.558594 14.398438 C 123.765625 14.398438 123.121094 13.753906 123.121094 12.960938 C 123.121094 12.164062 123.765625 11.519531 124.558594 11.519531 C 125.355469 11.519531 126 12.164062 126 12.960938 Z M 126 12.960938 "/>
</svg>
