<?xml version="1.0" encoding="UTF-8"?>
<svg xmlns="http://www.w3.org/2000/svg" xmlns:xlink="http://www.w3.org/1999/xlink" width="149.759995" height="149.759995" viewBox="0 0 149.759995 149.759995">
<path fill-rule="nonzero" fill="rgb(0%, 81.960784%, 37.254902%)" fill-opacity="1" d="M 24.480469 146.878906 L 125.28125 146.878906 C 137.210938 146.878906 146.878906 137.210938 146.878906 125.28125 L 146.878906 24.480469 C 146.878906 12.550781 137.210938 2.878906 125.28125 2.878906 L 24.480469 2.878906 C 12.550781 2.878906 2.878906 12.550781 2.878906 24.480469 L 2.878906 125.28125 C 2.878906 137.210938 12.550781 146.878906 24.480469 146.878906 Z M 24.480469 146.878906 "/>
<path fill-rule="nonzero" fill="rgb(0%, 81.960784%, 37.254902%)" fill-opacity="1" stroke-width="2.88" stroke-linecap="butt" stroke-linejoin="miter" stroke="rgb(100%, 100%, 100%)" stroke-opacity="1" stroke-miterlimit="4" d="M 47.999998 21.999022 L 47.999998 46.999021 L 72.999997 46.999021 C 72.999997 60.80653 61.807506 71.99902 47.999998 71.99902 C 34.19249 71.99902 22.999999 60.80653 22.999999 46.999021 C 22.999999 33.194226 34.19249 21.999022 47.999998 21.999022 Z M 47.999998 21.999022 " transform="matrix(1.44, 0, 0, 1.44, 2.88, 2.88)"/>
<path fill-rule="nonzero" fill="rgb(100%, 100%, 100%)" fill-opacity="1" stroke-width="2.88" stroke-linecap="butt" stroke-linejoin="miter" stroke="rgb(0%, 81.960784%, 37.254902%)" stroke-opacity="1" stroke-miterlimit="4" d="M 52.001191 18.000542 L 52.001191 43.000541 L 77.00119 43.000541 C 77.00119 29.193033 65.805987 18.000542 52.001191 18.000542 Z M 52.001191 18.000542 " transform="matrix(1.44, 0, 0, 1.44, 2.88, 2.88)"/>
</svg>
