<?xml version="1.0" encoding="UTF-8"?>
<svg xmlns="http://www.w3.org/2000/svg" xmlns:xlink="http://www.w3.org/1999/xlink" width="149.759995" height="149.759995" viewBox="0 0 149.759995 149.759995">
<path fill-rule="nonzero" fill="rgb(31.372549%, 34.509804%, 38.039216%)" fill-opacity="1" d="M 24.480469 146.878906 L 125.28125 146.878906 C 137.210938 146.878906 146.878906 137.210938 146.878906 125.28125 L 146.878906 24.480469 C 146.878906 12.550781 137.210938 2.878906 125.28125 2.878906 L 24.480469 2.878906 C 12.550781 2.878906 2.878906 12.550781 2.878906 24.480469 L 2.878906 125.28125 C 2.878906 137.210938 12.550781 146.878906 24.480469 146.878906 Z M 24.480469 146.878906 "/>
<path fill-rule="nonzero" fill="rgb(100%, 100%, 100%)" fill-opacity="1" d="M 60.039062 89.28125 L 52.363281 67.804688 L 57.066406 67.804688 L 62.5 83.699219 L 67.761719 67.804688 L 72.359375 67.804688 L 64.667969 89.28125 Z M 74.515625 89.28125 L 74.515625 67.804688 L 81.003906 67.804688 L 84.898438 82.453125 L 88.753906 67.804688 L 95.257812 67.804688 L 95.257812 89.28125 L 91.226562 89.28125 L 91.226562 72.375 L 86.964844 89.28125 L 82.789062 89.28125 L 78.542969 72.375 L 78.542969 89.28125 Z M 52.378906 62.121094 "/>
<path fill-rule="nonzero" fill="rgb(100%, 100%, 100%)" fill-opacity="1" stroke-width="2.88" stroke-linecap="butt" stroke-linejoin="miter" stroke="rgb(100%, 100%, 100%)" stroke-opacity="1" stroke-miterlimit="4" d="M 69.99978 10.000868 L 90.000322 10.000868 L 90.000322 29.998697 Z M 69.99978 10.000868 " transform="matrix(1.44, 0, 0, 1.44, 2.88, 2.88)"/>
</svg>
