<?xml version="1.0" encoding="UTF-8"?>
<svg xmlns="http://www.w3.org/2000/svg" xmlns:xlink="http://www.w3.org/1999/xlink" width="437.76001" height="345.600006" viewBox="0 0 437.76001 345.600006">
<path fill-rule="nonzero" fill="rgb(94.117647%, 94.117647%, 94.117647%)" fill-opacity="1" stroke-width="2.88" stroke-linecap="butt" stroke-linejoin="miter" stroke="rgb(94.117647%, 94.117647%, 94.117647%)" stroke-opacity="1" stroke-miterlimit="4" d="M 0.00030985 0.000762939 L 100.000114 0.000762939 L 49.999728 100.000759 Z M 0.00030985 0.000762939 " transform="matrix(4.032, 0, 0, 1.44, 17.280001, 141.119995)"/>
<path fill-rule="nonzero" fill="rgb(0%, 81.960784%, 37.254902%)" fill-opacity="1" stroke-width="2.88" stroke-linecap="butt" stroke-linejoin="miter" stroke="rgb(0%, 81.960784%, 37.254902%)" stroke-opacity="1" stroke-miterlimit="4" d="M 17.28125 146.878906 L 420.480469 146.878906 C 428.433594 146.878906 434.878906 140.433594 434.878906 132.480469 L 434.878906 17.28125 C 434.878906 9.328125 428.433594 2.878906 420.480469 2.878906 L 17.28125 2.878906 C 9.328125 2.878906 2.878906 9.328125 2.878906 17.28125 L 2.878906 132.480469 C 2.878906 140.433594 9.328125 146.878906 17.28125 146.878906 Z M 17.28125 146.878906 "/>
<path fill-rule="nonzero" fill="rgb(31.372549%, 34.509804%, 38.039216%)" fill-opacity="1" stroke-width="2.88" stroke-linecap="butt" stroke-linejoin="miter" stroke="rgb(100%, 100%, 100%)" stroke-opacity="1" stroke-miterlimit="4" d="M 132.480469 342.71875 L 305.28125 342.71875 C 317.210938 342.71875 326.878906 333.050781 326.878906 321.121094 L 326.878906 292.320312 C 326.878906 280.390625 317.210938 270.71875 305.28125 270.71875 L 132.480469 270.71875 C 120.550781 270.71875 110.878906 280.390625 110.878906 292.320312 L 110.878906 321.121094 C 110.878906 333.050781 120.550781 342.71875 132.480469 342.71875 Z M 132.480469 342.71875 "/>
<path fill-rule="nonzero" fill="rgb(100%, 100%, 100%)" fill-opacity="1" d="M 154.078125 306.71875 C 154.078125 314.671875 147.632812 321.121094 139.679688 321.121094 C 131.726562 321.121094 125.28125 314.671875 125.28125 306.71875 C 125.28125 298.765625 131.726562 292.320312 139.679688 292.320312 C 147.632812 292.320312 154.078125 298.765625 154.078125 306.71875 Z M 154.078125 306.71875 "/>
<path fill="none" stroke-width="4.32" stroke-linecap="butt" stroke-linejoin="miter" stroke="rgb(100%, 100%, 100%)" stroke-opacity="1" stroke-miterlimit="4" d="M 168.480469 306.71875 L 312.480469 306.71875 "/>
<path fill-rule="nonzero" fill="rgb(100%, 100%, 100%)" fill-opacity="1" d="M 152.925781 89.28125 L 145.089844 69.835938 L 150.488281 69.835938 L 154.152344 79.757812 L 155.214844 83.074219 C 155.496094 82.230469 155.671875 81.675781 155.746094 81.40625 C 155.917969 80.859375 156.097656 80.308594 156.292969 79.757812 L 159.992188 69.835938 L 165.285156 69.835938 L 157.558594 89.28125 Z M 167.097656 80.546875 L 172.371094 80.035156 C 172.6875 81.804688 173.332031 83.105469 174.300781 83.933594 C 175.273438 84.765625 176.582031 85.179688 178.230469 85.179688 C 179.976562 85.179688 181.289062 84.808594 182.175781 84.070312 C 183.0625 83.332031 183.503906 82.46875 183.503906 81.480469 C 183.503906 80.847656 183.316406 80.304688 182.945312 79.859375 C 182.574219 79.414062 181.921875 79.027344 180.996094 78.699219 C 180.359375 78.476562 178.914062 78.085938 176.65625 77.527344 C 173.75 76.804688 171.710938 75.921875 170.539062 74.871094 C 168.890625 73.394531 168.066406 71.59375 168.066406 69.46875 C 168.066406 68.101562 168.457031 66.824219 169.230469 65.632812 C 170.003906 64.441406 171.121094 63.535156 172.582031 62.914062 C 174.039062 62.292969 175.800781 61.980469 177.863281 61.980469 C 181.234375 61.980469 183.769531 62.71875 185.472656 64.195312 C 187.175781 65.671875 188.070312 67.644531 188.15625 70.109375 L 182.734375 70.347656 C 182.503906 68.96875 182.003906 67.976562 181.242188 67.371094 C 180.480469 66.769531 179.335938 66.464844 177.808594 66.464844 C 176.234375 66.464844 175 66.789062 174.109375 67.4375 C 173.535156 67.851562 173.25 68.40625 173.25 69.101562 C 173.25 69.738281 173.519531 70.28125 174.054688 70.734375 C 174.738281 71.308594 176.398438 71.90625 179.035156 72.527344 C 181.671875 73.148438 183.621094 73.792969 184.886719 74.457031 C 186.148438 75.125 187.136719 76.035156 187.851562 77.1875 C 188.566406 78.339844 188.921875 79.765625 188.921875 81.460938 C 188.921875 83 188.496094 84.441406 187.640625 85.785156 C 186.785156 87.128906 185.578125 88.125 184.015625 88.777344 C 182.453125 89.429688 180.507812 89.757812 178.175781 89.757812 C 174.78125 89.757812 172.175781 88.972656 170.355469 87.40625 C 168.539062 85.835938 167.453125 83.550781 167.097656 80.546875 Z M 193.300781 69.835938 L 198.097656 69.835938 L 198.097656 72.691406 C 198.71875 71.714844 199.5625 70.921875 200.625 70.3125 C 201.6875 69.703125 202.863281 69.394531 204.15625 69.394531 C 206.414062 69.394531 208.332031 70.28125 209.90625 72.050781 C 211.480469 73.820312 212.269531 76.285156 212.269531 79.449219 C 212.269531 82.695312 211.476562 85.21875 209.886719 87.019531 C 208.300781 88.820312 206.378906 89.71875 204.121094 89.71875 C 203.046875 89.71875 202.074219 89.507812 201.199219 89.078125 C 200.328125 88.652344 199.410156 87.921875 198.445312 86.882812 L 198.445312 96.679688 L 193.300781 96.679688 Z M 198.390625 79.230469 C 198.390625 81.414062 198.824219 83.027344 199.691406 84.070312 C 200.558594 85.113281 201.613281 85.636719 202.855469 85.636719 C 204.054688 85.636719 205.046875 85.160156 205.839844 84.199219 C 206.632812 83.242188 207.03125 81.671875 207.03125 79.484375 C 207.03125 77.445312 206.621094 75.933594 205.804688 74.945312 C 204.988281 73.957031 203.972656 73.460938 202.765625 73.460938 C 201.507812 73.460938 200.464844 73.945312 199.632812 74.917969 C 198.804688 75.886719 198.390625 77.324219 198.390625 79.230469 Z M 221.480469 62.4375 L 221.480469 72.308594 C 223.140625 70.367188 225.121094 69.394531 227.429688 69.394531 C 228.613281 69.394531 229.683594 69.617188 230.632812 70.054688 C 231.585938 70.496094 232.304688 71.054688 232.785156 71.738281 C 233.269531 72.421875 233.597656 73.179688 233.773438 74.011719 C 233.949219 74.839844 234.039062 76.128906 234.039062 77.875 L 234.039062 89.28125 L 228.894531 89.28125 L 228.894531 79.007812 C 228.894531 76.96875 228.796875 75.675781 228.601562 75.128906 C 228.40625 74.578125 228.0625 74.140625 227.566406 73.816406 C 227.074219 73.492188 226.453125 73.332031 225.707031 73.332031 C 224.855469 73.332031 224.089844 73.539062 223.417969 73.957031 C 222.746094 74.371094 222.257812 74.996094 221.945312 75.832031 C 221.632812 76.667969 221.480469 77.90625 221.480469 79.539062 L 221.480469 89.28125 L 216.332031 89.28125 L 216.332031 62.4375 Z M 250.519531 83.09375 L 255.644531 83.953125 C 254.988281 85.832031 253.945312 87.265625 252.523438 88.246094 C 251.101562 89.230469 249.324219 89.71875 247.1875 89.71875 C 243.804688 89.71875 241.300781 88.617188 239.679688 86.40625 C 238.398438 84.636719 237.757812 82.402344 237.757812 79.703125 C 237.757812 76.480469 238.597656 73.957031 240.285156 72.132812 C 241.96875 70.308594 244.097656 69.394531 246.675781 69.394531 C 249.566406 69.394531 251.847656 70.351562 253.523438 72.261719 C 255.195312 74.171875 255.992188 77.097656 255.921875 81.042969 L 243.03125 81.042969 C 243.066406 82.566406 243.480469 83.753906 244.273438 84.601562 C 245.066406 85.449219 246.058594 85.875 247.242188 85.875 C 248.046875 85.875 248.722656 85.65625 249.273438 85.214844 C 249.824219 84.777344 250.238281 84.070312 250.519531 83.09375 Z M 250.8125 77.890625 C 250.777344 76.402344 250.390625 75.269531 249.660156 74.496094 C 248.925781 73.71875 248.035156 73.332031 246.984375 73.332031 C 245.863281 73.332031 244.933594 73.742188 244.203125 74.558594 C 243.46875 75.378906 243.109375 76.488281 243.121094 77.890625 Z M 265.039062 89.28125 L 259.894531 89.28125 L 259.894531 69.835938 L 264.671875 69.835938 L 264.671875 72.601562 C 265.492188 71.292969 266.226562 70.433594 266.878906 70.019531 C 267.53125 69.605469 268.273438 69.394531 269.105469 69.394531 C 270.277344 69.394531 271.40625 69.71875 272.492188 70.367188 L 270.898438 74.851562 C 270.03125 74.289062 269.226562 74.011719 268.480469 74.011719 C 267.761719 74.011719 267.152344 74.207031 266.648438 74.605469 C 266.148438 75.003906 265.757812 75.71875 265.46875 76.757812 C 265.183594 77.792969 265.039062 79.96875 265.039062 83.273438 Z M 285.96875 83.09375 L 291.09375 83.953125 C 290.4375 85.832031 289.394531 87.265625 287.972656 88.246094 C 286.550781 89.230469 284.773438 89.71875 282.636719 89.71875 C 279.253906 89.71875 276.75 88.617188 275.128906 86.40625 C 273.847656 84.636719 273.207031 82.402344 273.207031 79.703125 C 273.207031 76.480469 274.046875 73.957031 275.734375 72.132812 C 277.417969 70.308594 279.546875 69.394531 282.125 69.394531 C 285.015625 69.394531 287.296875 70.351562 288.972656 72.261719 C 290.644531 74.171875 291.441406 77.097656 291.371094 81.042969 L 278.480469 81.042969 C 278.515625 82.566406 278.929688 83.753906 279.722656 84.601562 C 280.515625 85.449219 281.507812 85.875 282.691406 85.875 C 283.496094 85.875 284.171875 85.65625 284.722656 85.214844 C 285.273438 84.777344 285.6875 84.070312 285.96875 83.09375 Z M 286.261719 77.890625 C 286.226562 76.402344 285.839844 75.269531 285.109375 74.496094 C 284.375 73.71875 283.484375 73.332031 282.433594 73.332031 C 281.3125 73.332031 280.382812 73.742188 279.652344 74.558594 C 278.917969 75.378906 278.558594 76.488281 278.570312 77.890625 Z M 144.886719 55.332031 "/>
</svg>
