<?xml version="1.0" encoding="UTF-8"?>
<svg xmlns="http://www.w3.org/2000/svg" xmlns:xlink="http://www.w3.org/1999/xlink" width="149.759995" height="149.759995" viewBox="0 0 149.759995 149.759995">
<path fill-rule="nonzero" fill="rgb(31.372549%, 34.509804%, 38.039216%)" fill-opacity="1" d="M 24.480469 146.878906 L 125.28125 146.878906 C 137.210938 146.878906 146.878906 137.210938 146.878906 125.28125 L 146.878906 24.480469 C 146.878906 12.550781 137.210938 2.878906 125.28125 2.878906 L 24.480469 2.878906 C 12.550781 2.878906 2.878906 12.550781 2.878906 24.480469 L 2.878906 125.28125 C 2.878906 137.210938 12.550781 146.878906 24.480469 146.878906 Z M 24.480469 146.878906 "/>
<path fill-rule="nonzero" fill="rgb(100%, 100%, 100%)" fill-opacity="1" d="M 24.582031 38.707031 L 65.710938 33.109375 L 65.726562 72.738281 L 24.601562 72.972656 Z M 65.710938 77.300781 L 65.742188 117.042969 L 24.617188 111.398438 L 24.613281 77.070312 Z M 70.699219 32.371094 L 125.1875 24.410156 L 125.1875 72.21875 L 70.699219 72.652344 Z M 125.1875 77.644531 L 125.175781 125.222656 L 70.6875 117.527344 L 70.609375 77.550781 Z M 125.1875 77.644531 "/>
</svg>
